<?xml version="1.0" encoding="utf-8"?>
<!-- Generator: Adobe Illustrator 19.0.0, SVG Export Plug-In . SVG Version: 6.00 Build 0)  -->
<svg version="1.1" id="layer" xmlns="http://www.w3.org/2000/svg" xmlns:xlink="http://www.w3.org/1999/xlink" x="0px" y="0px"
	 viewBox="-153 -46 652 652" style="enable-background:new -153 -46 652 652;" xml:space="preserve">
<style type="text/css">
	.st0{fill:#105C8D;}
	.st1{fill:#75AEC9;}
</style>
<path class="st0" d="M95.3,360.5v-26.1h5.4c3.9,0,6.7,0.3,8.5,0.9c2.5,0.9,4.5,2.4,5.9,4.6c1.4,2.2,2.1,4.8,2.1,7.8
	c0,2.6-0.6,4.9-1.7,6.9c-1.1,2-2.6,3.5-4.4,4.4c-1.8,1-4.3,1.4-7.6,1.4H95.3z M97.8,358.1h3c3.6,0,6.1-0.2,7.5-0.7
	c2-0.6,3.5-1.8,4.6-3.5c1.1-1.7,1.7-3.7,1.7-6.1c0-2.5-0.6-4.7-1.8-6.5s-2.9-3-5.1-3.7c-1.6-0.5-4.3-0.7-8.1-0.7h-1.8V358.1z"/>
<polygon class="st0" points="122,360.5 122,334.4 122.6,334.4 140,354.4 140,334.4 142.5,334.4 142.5,360.5 142,360.5 124.7,340.7 
	124.7,360.5 "/>
<path class="st0" d="M158,334.4l12.2,26.1h-2.8l-4.1-8.6H152l-4.1,8.6h-2.9l12.3-26.1H158z M157.7,340l-4.5,9.5h8.9L157.7,340z"/>
<rect x="-131.7" y="334.4" class="st0" width="2.6" height="26.1"/>
<polygon class="st0" points="-124,360.5 -124,334.4 -123.5,334.4 -106.1,354.4 -106.1,334.4 -103.5,334.4 -103.5,360.5 
	-104.1,360.5 -121.3,340.7 -121.3,360.5 "/>
<polygon class="st0" points="-98.5,337 -98.5,334.4 -84.2,334.4 -84.2,337 -90,337 -90,360.5 -92.6,360.5 -92.6,337 "/>
<polygon class="st0" points="-79.4,334.4 -64.4,334.4 -64.4,337 -76.8,337 -76.8,345.1 -64.5,345.1 -64.5,347.7 -76.8,347.7 
	-76.8,358 -64.5,358 -64.5,360.5 -79.4,360.5 "/>
<path class="st0" d="M-34.3,338.8l-2,1.9c-1.5-1.4-3-2.5-4.8-3.3c-1.7-0.7-3.4-1.1-5.1-1.1c-2,0-4,0.5-5.8,1.5
	c-1.8,1-3.3,2.4-4.3,4.1c-1,1.7-1.5,3.5-1.5,5.5c0,2,0.5,3.8,1.6,5.6c1,1.8,2.5,3.2,4.4,4.2c1.9,1,3.9,1.5,6.1,1.5
	c2.7,0,5-0.8,6.8-2.3c1.9-1.5,3-3.5,3.3-5.9H-44V348h11.3c0,4-1.2,7.2-3.6,9.6c-2.4,2.4-5.5,3.6-9.5,3.6c-4.8,0-8.6-1.6-11.4-4.9
	c-2.2-2.5-3.2-5.5-3.2-8.8c0-2.5,0.6-4.8,1.9-6.9c1.2-2.1,2.9-3.8,5.1-5c2.2-1.2,4.6-1.8,7.3-1.8c2.2,0,4.3,0.4,6.2,1.2
	C-38,335.7-36.1,337-34.3,338.8"/>
<path class="st0" d="M-28.8,334.4h5.2c2.9,0,4.9,0.1,5.9,0.3c1.5,0.4,2.8,1.1,3.8,2.3c1,1.2,1.4,2.6,1.4,4.3c0,1.4-0.3,2.7-1,3.8
	c-0.7,1.1-1.6,1.9-2.9,2.4c-1.2,0.5-3,0.8-5.1,0.8l9.4,12.1h-3.2l-9.4-12.1h-1.5v12.1h-2.6V334.4z M-26.2,337v8.9l4.5,0
	c1.7,0,3-0.2,3.9-0.5c0.8-0.3,1.5-0.9,2-1.6c0.5-0.7,0.7-1.5,0.7-2.4c0-0.9-0.2-1.7-0.7-2.4c-0.5-0.7-1.1-1.2-1.9-1.5
	c-0.8-0.3-2.1-0.5-3.8-0.5H-26.2z"/>
<path class="st0" d="M3.3,334.4l12.2,26.1h-2.8l-4.1-8.6H-2.7l-4.1,8.6h-2.9l12.3-26.1H3.3z M3,340l-4.5,9.5h8.9L3,340z"/>
<polygon class="st0" points="14.3,337 14.3,334.4 28.6,334.4 28.6,337 22.7,337 22.7,360.5 20.1,360.5 20.1,337 "/>
<polygon class="st0" points="33.6,334.4 48.6,334.4 48.6,337 36.2,337 36.2,345.1 48.5,345.1 48.5,347.7 36.2,347.7 36.2,358 
	48.5,358 48.5,360.5 33.6,360.5 "/>
<path class="st0" d="M53.7,360.5v-26.1h5.4c3.9,0,6.7,0.3,8.5,0.9c2.5,0.9,4.5,2.4,5.9,4.6c1.4,2.2,2.1,4.8,2.1,7.8
	c0,2.6-0.6,4.9-1.7,6.9c-1.1,2-2.6,3.5-4.4,4.4c-1.8,1-4.3,1.4-7.6,1.4H53.7z M56.2,358.1h3c3.6,0,6.1-0.2,7.5-0.7
	c2-0.6,3.5-1.8,4.6-3.5c1.1-1.7,1.7-3.7,1.7-6.1c0-2.5-0.6-4.7-1.8-6.5c-1.2-1.8-2.9-3-5.1-3.7c-1.6-0.5-4.3-0.7-8.1-0.7h-1.8V358.1
	z"/>
<polygon class="st0" points="184,337 184,334.4 198.2,334.4 198.2,337 192.4,337 192.4,360.5 189.8,360.5 189.8,337 "/>
<polygon class="st0" points="203.5,334 218.4,334 218.4,336.6 206.1,336.6 206.1,344.8 218.3,344.8 218.3,347.3 206.1,347.3 
	206.1,357.6 218.3,357.6 218.3,360.1 203.5,360.1 "/>
<path class="st0" d="M248.1,339.2l-2.1,1.6c-1.1-1.5-2.5-2.6-4.1-3.4c-1.6-0.8-3.3-1.1-5.2-1.1c-2.1,0-4,0.5-5.8,1.5
	c-1.8,1-3.1,2.3-4.1,4c-1,1.7-1.5,3.6-1.5,5.7c0,3.2,1.1,5.8,3.3,8c2.2,2.1,4.9,3.2,8.3,3.2c3.7,0,6.7-1.4,9.2-4.3l2.1,1.6
	c-1.3,1.7-2.9,2.9-4.9,3.9c-1.9,0.9-4.1,1.4-6.5,1.4c-4.6,0-8.2-1.5-10.8-4.6c-2.2-2.6-3.3-5.7-3.3-9.3c0-3.8,1.3-7,4-9.6
	c2.7-2.6,6-3.9,10.1-3.9c2.4,0,4.6,0.5,6.6,1.4C245.3,336.2,246.9,337.5,248.1,339.2"/>
<polygon class="st0" points="252,334.4 254.7,334.4 254.7,345.4 267.9,345.4 267.9,334.4 270.5,334.4 270.5,360.5 267.9,360.5 
	267.9,347.9 254.7,347.9 254.7,360.5 252,360.5 "/>
<polygon class="st0" points="275.6,360.5 275.6,334.4 276.2,334.4 293.5,354.4 293.5,334.4 296.1,334.4 296.1,360.5 295.5,360.5 
	278.3,340.7 278.3,360.5 "/>
<path class="st0" d="M313.6,333.7c4,0,7.3,1.3,9.9,4c2.7,2.6,4,5.9,4,9.8c0,3.8-1.3,7.1-4,9.7c-2.7,2.7-5.9,4-9.7,4
	c-3.9,0-7.1-1.3-9.8-4c-2.7-2.7-4-5.9-4-9.6c0-2.5,0.6-4.8,1.8-7c1.2-2.1,2.9-3.8,5-5C308.9,334.3,311.2,333.7,313.6,333.7
	 M313.7,336.3c-1.9,0-3.8,0.5-5.5,1.5c-1.7,1-3.1,2.4-4.1,4.1c-1,1.7-1.5,3.6-1.5,5.7c0,3.1,1.1,5.7,3.2,7.9
	c2.2,2.1,4.7,3.2,7.8,3.2c2,0,3.9-0.5,5.6-1.5c1.7-1,3.1-2.3,4-4c1-1.7,1.4-3.6,1.4-5.7c0-2.1-0.5-3.9-1.4-5.6c-1-1.7-2.3-3-4.1-4
	C317.5,336.8,315.7,336.3,313.7,336.3"/>
<polygon class="st0" points="332.1,334.4 334.7,334.4 334.7,358 344.8,358 344.8,360.5 332.1,360.5 "/>
<path class="st0" d="M359.5,333.7c4,0,7.3,1.3,9.9,4c2.7,2.6,4,5.9,4,9.8c0,3.8-1.3,7.1-4,9.7c-2.7,2.7-5.9,4-9.7,4
	c-3.9,0-7.1-1.3-9.8-4c-2.7-2.7-4-5.9-4-9.6c0-2.5,0.6-4.8,1.8-7c1.2-2.1,2.9-3.8,5-5C354.8,334.3,357.1,333.7,359.5,333.7
	 M359.6,336.3c-1.9,0-3.8,0.5-5.5,1.5c-1.7,1-3.1,2.4-4.1,4.1c-1,1.7-1.5,3.6-1.5,5.7c0,3.1,1.1,5.7,3.2,7.9
	c2.2,2.1,4.7,3.2,7.8,3.2c2,0,3.9-0.5,5.6-1.5c1.7-1,3.1-2.3,4-4c1-1.7,1.4-3.6,1.4-5.7c0-2.1-0.5-3.9-1.4-5.6c-1-1.7-2.3-3-4.1-4
	C363.4,336.8,361.6,336.3,359.6,336.3"/>
<path class="st0" d="M403.6,338.8l-2,1.9c-1.5-1.4-3.1-2.5-4.8-3.3c-1.7-0.7-3.4-1.1-5.1-1.1c-2,0-4,0.5-5.9,1.5
	c-1.8,1-3.3,2.4-4.3,4.1c-1,1.7-1.5,3.5-1.5,5.5c0,2,0.5,3.8,1.6,5.6c1.1,1.8,2.5,3.2,4.4,4.2c1.9,1,3.9,1.5,6.1,1.5
	c2.7,0,5-0.8,6.8-2.3c1.9-1.5,3-3.5,3.3-5.9h-8.3V348h11.3c0,4-1.2,7.2-3.6,9.6c-2.4,2.4-5.5,3.6-9.5,3.6c-4.8,0-8.6-1.6-11.5-4.9
	c-2.2-2.5-3.2-5.5-3.2-8.8c0-2.5,0.6-4.8,1.9-6.9c1.2-2.1,3-3.8,5.1-5c2.2-1.2,4.6-1.8,7.3-1.8c2.2,0,4.3,0.4,6.2,1.2
	C399.8,335.7,401.7,337,403.6,338.8"/>
<rect x="409" y="334.4" class="st0" width="2.6" height="26.1"/>
<polygon class="st0" points="416.5,334.4 431.4,334.4 431.4,337 419.1,337 419.1,345.1 431.3,345.1 431.3,347.7 419.1,347.7 
	419.1,358 431.3,358 431.3,360.5 416.5,360.5 "/>
<path class="st0" d="M433.4,355.7l2.2-1.3c1.6,2.9,3.4,4.3,5.4,4.3c0.9,0,1.7-0.2,2.5-0.6c0.8-0.4,1.4-1,1.7-1.6
	c0.4-0.7,0.6-1.4,0.6-2.2c0-0.9-0.3-1.7-0.9-2.6c-0.8-1.2-2.3-2.6-4.5-4.2c-2.2-1.6-3.5-2.8-4.1-3.6c-0.9-1.2-1.4-2.6-1.4-4
	c0-1.1,0.3-2.2,0.8-3.1c0.5-0.9,1.3-1.7,2.3-2.2c1-0.5,2.1-0.8,3.2-0.8c1.2,0,2.4,0.3,3.5,0.9c1.1,0.6,2.2,1.7,3.4,3.4l-2.1,1.6
	c-1-1.3-1.8-2.2-2.5-2.6c-0.7-0.4-1.5-0.6-2.3-0.6c-1.1,0-1.9,0.3-2.6,1c-0.7,0.6-1,1.4-1,2.4c0,0.6,0.1,1.1,0.4,1.7
	c0.2,0.5,0.7,1.1,1.3,1.7c0.3,0.3,1.5,1.2,3.4,2.6c2.3,1.7,3.8,3.2,4.7,4.5c0.8,1.3,1.3,2.6,1.3,3.9c0,1.9-0.7,3.5-2.1,4.9
	c-1.4,1.4-3.2,2.1-5.2,2.1c-1.6,0-3-0.4-4.3-1.3C435.7,359.1,434.5,357.7,433.4,355.7"/>
<path class="st0" d="M220.5,315l-4.3-0.2c-29.3-1.3-57.6-25-84.1-49.1c-27.3-25-55.5-50.8-85.2-53c-1.4-0.1-2.8-0.2-4.2-0.2
	c-26.2,0-50.9,19-74,38.4l-2.8,2.4l-2.6-2.4c-1.4-1.3-2.8-2.6-4.2-3.8l-3.2-3.1l4.2-3.8c26.1-23.8,56.4-49.1,87-48.5
	c31.3,0.7,59.1,24.4,86.1,47.3l0.1,0.1c26.4,22.5,53.7,45.7,83.1,45.2l4.1-0.1V315z"/>
<path class="st1" d="M216.4,191.8c-23.1,0.2-44.2,18.9-64.6,37c-4.7,4.2-9.6,8.5-14.4,12.5l-0.8,0.6c3.2,2.7,6.5,5.5,9.8,8.2
	c3.9-3.4,7.9-7.1,11.8-10.7c18.6-17.1,37.9-34.8,58.4-36l3.9-0.2v-11.5L216.4,191.8z"/>
<rect x="236.5" y="191.8" class="st0" width="23.3" height="123.3"/>
<path class="st0" d="M273.5,191.8h26.7c13.5,0,25.1,1.2,34.7,3.5s17.7,6.1,24.2,11.4c7.5,5.9,13,12.7,16.8,20.4
	c3.7,7.7,5.6,16.1,5.6,25.3c0,8.7-1.7,16.8-5,24.5c-3.4,7.6-8.2,14.3-14.7,20c-6.4,5.7-14.3,10.2-23.8,13.4
	c-9.4,3.3-20.2,4.9-32.4,4.9h-32.1V191.8z M295.5,306.1h6.4c7.5,0,14.4-1.1,21-3.4c6.5-2.3,12.2-5.7,17-10.2s8.6-10.1,11.4-16.7
	c2.8-6.6,4.2-14.3,4.2-23c0-7.6-1.3-14.5-4-20.9c-2.7-6.4-6.3-11.8-11.1-16.4c-4.7-4.6-10.4-8.1-16.9-10.7
	c-6.6-2.5-13.7-3.8-21.5-3.8h-6.7V306.1z"/>
<polygon class="st0" points="451,191.8 451,205.6 419.9,205.6 419.9,315.1 396.5,315.1 396.5,205.6 365.4,205.6 365.4,191.8 "/>
<path class="st0" d="M454.5,198.6c0-0.9,0.2-1.8,0.5-2.7c0.4-0.8,0.9-1.5,1.5-2.2c0.6-0.6,1.3-1.1,2.2-1.5c0.8-0.4,1.7-0.5,2.7-0.5
	c0.9,0,1.8,0.2,2.7,0.5c0.8,0.4,1.5,0.9,2.2,1.5c0.6,0.6,1.1,1.3,1.5,2.2c0.4,0.8,0.5,1.7,0.5,2.7c0,0.9-0.2,1.8-0.5,2.7
	c-0.4,0.8-0.8,1.5-1.5,2.2c-0.6,0.6-1.3,1.1-2.2,1.5c-0.8,0.4-1.7,0.5-2.7,0.5c-0.9,0-1.8-0.2-2.7-0.5c-0.8-0.4-1.5-0.9-2.2-1.5
	c-0.6-0.6-1.1-1.3-1.5-2.2C454.7,200.5,454.5,199.6,454.5,198.6 M455.7,198.6c0,0.8,0.1,1.5,0.4,2.2c0.3,0.7,0.7,1.3,1.2,1.8
	c0.5,0.5,1.1,0.9,1.8,1.2c0.7,0.3,1.4,0.4,2.2,0.4c0.8,0,1.5-0.1,2.2-0.4c0.7-0.3,1.3-0.7,1.8-1.2c0.5-0.5,0.9-1.1,1.2-1.8
	c0.3-0.7,0.4-1.4,0.4-2.2c0-0.8-0.1-1.5-0.4-2.2c-0.3-0.7-0.7-1.3-1.2-1.8c-0.5-0.5-1.1-0.9-1.8-1.2c-0.7-0.3-1.4-0.4-2.2-0.4
	c-0.8,0-1.5,0.2-2.2,0.4c-0.7,0.3-1.3,0.7-1.8,1.2c-0.5,0.5-0.9,1.1-1.2,1.8C455.8,197.1,455.7,197.9,455.7,198.6 M458.7,194.7h3
	c1,0,1.6,0.2,2.1,0.6c0.5,0.4,0.7,1,0.7,1.8c0,0.7-0.2,1.2-0.5,1.5c-0.4,0.3-0.8,0.5-1.3,0.6l2,3.3h-1.5l-1.9-3.2h-1v3.2h-1.4V194.7
	z M460.1,198.1h1c0.2,0,0.4,0,0.7,0c0.2,0,0.4-0.1,0.6-0.1c0.2-0.1,0.3-0.2,0.4-0.3c0.1-0.1,0.2-0.3,0.2-0.6c0-0.3-0.1-0.5-0.2-0.6
	c-0.1-0.2-0.2-0.3-0.4-0.3c-0.2-0.1-0.4-0.1-0.6-0.1c-0.2,0-0.4,0-0.7,0h-1V198.1z"/>
<path class="st1" d="M119.4,257.7c-23.1,19.8-48,39.1-75.5,39.1h-0.3c-28.1-0.2-53.3-21-77.7-43.5v0l-2.6-2.4
	c-1.4-1.3-2.8-2.6-4.2-3.8l-3.2-3.1l0,0c-25.8-24.2-52.4-48.9-83.1-52.4l-4.6-0.5v31.8l3.9,0.2c29.7,1.5,56.8,25.1,83,47.8
	c28.2,24.5,54.8,47.7,85.5,47.7c1,0,2,0,3.1-0.1c32.4-1.7,61.5-29.1,85-51.1l2.6-2.5c-3.3-3-6.6-6-9.9-8.9L119.4,257.7z"/>
<path class="st0" d="M-59.9,258c-4.7,4-9.5,8.3-14.1,12.5c-17.6,15.8-35.7,32.2-54.1,34.5l-3.7,0.5V317l4.5-0.3
	c22.3-1.7,42.5-19.3,62-36.4c5.4-4.7,10.5-9.2,15.7-13.3l0.1-0.1C-52.9,263.9-56.4,260.9-59.9,258"/>
</svg>
