<svg id="Layer_1" data-name="Layer 1" xmlns="http://www.w3.org/2000/svg" viewBox="0 0 144 123.06"><defs><style>.cls-1{fill:#9ecd5f;}</style></defs><path class="cls-1" d="M81.57,29.37v0A2.24,2.24,0,0,0,82.25,31a2.35,2.35,0,0,0,.77.51,2.31,2.31,0,0,0,.83.16,2.28,2.28,0,0,0,1.91-1,2.21,2.21,0,0,0,.37-1.08c0-.06,0-.11,0-.17a2.28,2.28,0,0,0-4.35-1h0A2.19,2.19,0,0,0,81.57,29.37Zm.32,0a2,2,0,1,1,2,2A2,2,0,0,1,81.89,29.41Z"/><path class="cls-1" d="M81.89,29.41a2,2,0,1,0,2-2A2,2,0,0,0,81.89,29.41Z"/><polygon class="cls-1" points="84.54 31.58 84.13 33.32 83.11 33.08 83.55 31.67 84.54 31.58"/><polygon class="cls-1" points="83.02 31.53 82.68 32.96 81.57 32.69 82.25 31.02 83.02 31.53"/><path class="cls-1" d="M64.15,94.77a2.28,2.28,0,0,0,4,1.49,3.55,3.55,0,0,0,.23-.31,2.37,2.37,0,0,0,.32-1.18,1.83,1.83,0,0,0,0-.47,1.58,1.58,0,0,0-.11-.37,2.24,2.24,0,0,0-.51-.78,2.33,2.33,0,0,0-.77-.5,2,2,0,0,0-.53-.14l-.31,0a2.2,2.2,0,0,0-.68.1A2.28,2.28,0,0,0,64.15,94.77Zm.32,0a2,2,0,0,1,3.85-.53A2.27,2.27,0,0,0,68,95.7a1.08,1.08,0,0,0,0,.19,2,2,0,0,1-3.58-1.12Z"/><path class="cls-1" d="M64.47,94.77a2,2,0,0,0,3.58,1.12,1.08,1.08,0,0,1,0-.19,2.27,2.27,0,0,1,.3-1.46,2,2,0,0,0-3.85.53Z"/><path class="cls-1" d="M68,95.7a1.08,1.08,0,0,0,0,.19,1.68,1.68,0,0,0,.26-.54h0a1.57,1.57,0,0,0,.08-.49h0v-.08a1.59,1.59,0,0,0-.08-.53A2.27,2.27,0,0,0,68,95.7Z"/><polygon class="cls-1" points="65.75 92.59 66.16 90.86 67.17 91.1 66.74 92.51 65.75 92.59"/><polygon class="cls-1" points="67.27 92.65 67.61 91.21 68.71 91.48 68.04 93.16 67.27 92.65"/><path class="cls-1" d="M105.53,70.8a2.26,2.26,0,0,0,.1.69,2.28,2.28,0,1,0,3.2-2.73,2.32,2.32,0,0,0-1-.24,2.12,2.12,0,0,0-.44,0,2.26,2.26,0,0,0-1.17.62h0a2.13,2.13,0,0,0-.5.78A2.31,2.31,0,0,0,105.53,70.8Zm.31,0a2,2,0,1,1,2,2A2,2,0,0,1,105.84,70.8Z"/><path class="cls-1" d="M105.84,70.8a2,2,0,1,0,2-2A2,2,0,0,0,105.84,70.8Z"/><polygon class="cls-1" points="105.63 71.49 103.9 71.08 104.14 70.06 105.55 70.5 105.63 71.49"/><polygon class="cls-1" points="105.69 69.97 104.25 69.63 104.52 68.52 106.19 69.19 105.69 69.97"/><path class="cls-1" d="M40.2,53.37a2.27,2.27,0,0,0,.74,1.69,2.42,2.42,0,0,0,.36.27,2.34,2.34,0,0,0,1.18.32h0a2.15,2.15,0,0,0,.45,0h0A2.21,2.21,0,0,0,44.09,55h0a2.33,2.33,0,0,0,.5-.77,2.44,2.44,0,0,0,.14-.53,3,3,0,0,0,0-.31,2.3,2.3,0,0,0-2.28-2.28A2.28,2.28,0,0,0,40.2,53.37Zm.31,0a2,2,0,1,1,2.07,2A2.31,2.31,0,0,0,41.39,55,2,2,0,0,1,40.51,53.37Z"/><path class="cls-1" d="M40.51,53.37A2,2,0,0,0,41.39,55a2.31,2.31,0,0,1,1.19.33,2,2,0,1,0-2.07-2Z"/><path class="cls-1" d="M41.39,55a2,2,0,0,0,1.09.33h.1A2.31,2.31,0,0,0,41.39,55Z"/><polygon class="cls-1" points="44.66 52.69 46.39 53.09 46.15 54.11 44.74 53.68 44.66 52.69"/><polygon class="cls-1" points="44.6 54.21 46.03 54.55 45.76 55.65 44.09 54.98 44.6 54.21"/><path class="cls-1" d="M102.13,45.2a2.09,2.09,0,0,0,.18.85,2,2,0,0,0,.27.47,1.51,1.51,0,0,0,.21.23,2.32,2.32,0,0,0,.55.41,2.37,2.37,0,0,0,1.06.26,2.3,2.3,0,0,0,1.35-.44h0a1.74,1.74,0,0,0,.27-.22,2.28,2.28,0,0,0-2.52-3.7,2.14,2.14,0,0,0-.71.47l-.05.06A2.23,2.23,0,0,0,102.13,45.2Zm.88-1.45a2,2,0,1,1,0,2.79A2,2,0,0,1,103,43.75Z"/><circle class="cls-1" cx="104.4" cy="45.14" r="1.97"/><polygon class="cls-1" points="103.34 47.16 101.83 48.1 101.28 47.21 102.59 46.52 103.34 47.16"/><polygon class="cls-1" points="102.31 46.05 101.06 46.83 100.47 45.85 102.12 45.14 102.31 46.05"/><path class="cls-1" d="M44.27,80.65a2.38,2.38,0,0,0,2,.63,2.26,2.26,0,0,0,1.21-.63l.23-.27a3.45,3.45,0,0,0,.2-.32,2.35,2.35,0,0,0,.24-1,2.3,2.3,0,0,0-.19-.9,2.23,2.23,0,0,0-.48-.71,2.44,2.44,0,0,0-.56-.41,2.28,2.28,0,0,0-2.67,3.64Zm.23-3a2,2,0,0,1,3,2.45,2.29,2.29,0,0,0-1.39.84.21.21,0,0,1,0,.06,1.94,1.94,0,0,1-1.61-.56A2,2,0,0,1,44.5,77.64Z"/><path class="cls-1" d="M44.5,80.43a1.94,1.94,0,0,0,1.61.56.21.21,0,0,0,0-.06,2.29,2.29,0,0,1,1.39-.84,2,2,0,1,0-3,.34Z"/><path class="cls-1" d="M46.11,81a1.62,1.62,0,0,0,.57-.16h0a1.75,1.75,0,0,0,.47-.29l.13-.11a2,2,0,0,0,.26-.34,2.29,2.29,0,0,0-1.39.84A.21.21,0,0,1,46.11,81Z"/><polygon class="cls-1" points="46.94 77.01 48.45 76.07 49.01 76.96 47.7 77.65 46.94 77.01"/><polygon class="cls-1" points="47.98 78.12 49.23 77.35 49.82 78.32 48.17 79.03 47.98 78.12"/><path class="cls-1" d="M90.47,93a2.28,2.28,0,0,0,3.85-2,2.23,2.23,0,0,0-.13-.44,2.26,2.26,0,0,0-.5-.73,2.09,2.09,0,0,0-.22-.2,1.78,1.78,0,0,0-.39-.24,2.22,2.22,0,0,0-1-.23,2.26,2.26,0,0,0-1.61.67,2.39,2.39,0,0,0-.41.55A2.29,2.29,0,0,0,90.47,93Zm.22-3a2,2,0,0,1,2.52-.22h0a2.22,2.22,0,0,0,.7.92h0A2,2,0,1,1,90.69,90Z"/><path class="cls-1" d="M90.69,92.75a2,2,0,0,0,3.24-2.07h0a2.22,2.22,0,0,1-.7-.92h0a2,2,0,0,0-2.52,3Z"/><path class="cls-1" d="M93.21,89.75a2.22,2.22,0,0,0,.7.92h0a2,2,0,0,0-.46-.71A1.78,1.78,0,0,0,93.21,89.75Z"/><polygon class="cls-1" points="90.06 90.31 89.12 88.79 90.01 88.24 90.7 89.55 90.06 90.31"/><polygon class="cls-1" points="91.17 89.27 90.4 88.02 91.37 87.42 92.08 89.08 91.17 89.27"/><path class="cls-1" d="M56,33.22h0a2.29,2.29,0,0,0,.63,1.21l.13.11h0a2.28,2.28,0,0,0,1.49.56,2.39,2.39,0,0,0,.91-.19,2.53,2.53,0,0,0,.47-.28l.23-.2a2.44,2.44,0,0,0,.41-.56h0a2.23,2.23,0,0,0,.17-1.66,2,2,0,0,0-.44-.85l-.14-.16a2.28,2.28,0,0,0-3.86,2Zm.86-1.8a2,2,0,1,1,0,2.79A2,2,0,0,1,56.82,31.42Z"/><path class="cls-1" d="M56.82,34.21a2,2,0,1,0,0-2.79A2,2,0,0,0,56.82,34.21Z"/><polygon class="cls-1" points="60.23 33.87 61.16 35.38 60.28 35.94 59.59 34.63 60.23 33.87"/><polygon class="cls-1" points="59.12 34.91 59.89 36.16 58.92 36.75 58.21 35.1 59.12 34.91"/><path class="cls-1" d="M93.47,36a2.1,2.1,0,0,0,.52.77,2.41,2.41,0,0,0,.44.33,1.69,1.69,0,0,0,.27.13A2.24,2.24,0,0,0,96.87,37h0a2.19,2.19,0,0,0,.7-.78h0a1,1,0,0,0,.11-.21,2.28,2.28,0,0,0-1.24-3,2.24,2.24,0,0,0-2.12.21,1.9,1.9,0,0,0-.41.34,2,2,0,0,0-.44.68v0a2,2,0,0,0-.14.52A2.25,2.25,0,0,0,93.47,36Zm.26-1.56h0a2.21,2.21,0,0,0,.45-.7h0a1.94,1.94,0,0,1,2.14-.43,2,2,0,1,1-2.59,1.13Z"/><path class="cls-1" d="M94.82,36.93a2,2,0,0,0,1.5-3.64,1.94,1.94,0,0,0-2.14.43h0a2.21,2.21,0,0,1-.45.7h0A2,2,0,0,0,94.82,36.93Z"/><path class="cls-1" d="M93.73,34.42a2.21,2.21,0,0,0,.45-.7,2,2,0,0,0-.43.63A.19.19,0,0,1,93.73,34.42Z"/><polygon class="cls-1" points="95.37 37.38 94.33 38.83 93.48 38.22 94.42 37.08 95.37 37.38"/><polygon class="cls-1" points="93.99 36.75 93.13 37.95 92.21 37.27 93.47 35.98 93.99 36.75"/><path class="cls-1" d="M53.6,90.94a2.28,2.28,0,0,0,2.07-.17,2.54,2.54,0,0,0,.45-.36,2.24,2.24,0,0,0,.39-.56l.07-.15a2.91,2.91,0,0,0,.12-.39,2.29,2.29,0,0,0-.64-2.13,2.36,2.36,0,0,0-.44-.32,1.74,1.74,0,0,0-.27-.14,2.75,2.75,0,0,0-.67-.17,2.29,2.29,0,0,0-1.08,4.39Zm-.94-2.86a2,2,0,1,1,3.63,1.5.2.2,0,0,1,0,.08h0a2.47,2.47,0,0,0-.39.55h0a2,2,0,0,1-3.2-2.14Z"/><path class="cls-1" d="M53.72,90.64a2,2,0,0,0,2.14-.42h0a2.47,2.47,0,0,1,.39-.55h0a.2.2,0,0,0,0-.08,2,2,0,1,0-2.57,1.06Z"/><path class="cls-1" d="M55.86,90.22a2,2,0,0,0,.39-.55A2.47,2.47,0,0,0,55.86,90.22Z"/><polygon class="cls-1" points="54.68 86.55 55.72 85.11 56.56 85.72 55.62 86.86 54.68 86.55"/><polygon class="cls-1" points="56.06 87.19 56.92 85.99 57.84 86.66 56.58 87.95 56.06 87.19"/><path class="cls-1" d="M101,84.63a2.28,2.28,0,0,0,3-1.23,2.31,2.31,0,0,0-.12-2,2.51,2.51,0,0,0-.27-.37,2.13,2.13,0,0,0-.85-.62l-.13,0a1.65,1.65,0,0,0-.44-.1,2.25,2.25,0,0,0-1.18.15,2.19,2.19,0,0,0-.76.52,2,2,0,0,0-.33.44c-.05.09-.1.18-.14.27a2.32,2.32,0,0,0-.16.68A2.26,2.26,0,0,0,101,84.63Zm-1-2.86a2,2,0,0,1,2.38-1.13h0a2.26,2.26,0,0,0,1,.67h0a2,2,0,0,1,.28,2,2,2,0,1,1-3.64-1.51Z"/><path class="cls-1" d="M101.12,84.35a2,2,0,0,0,2.57-1.07,2,2,0,0,0-.28-2h0a2.26,2.26,0,0,1-1-.67h0a2,2,0,0,0-1.31,3.71Z"/><path class="cls-1" d="M102.43,80.64a2.26,2.26,0,0,0,1,.67,1.9,1.9,0,0,0-.79-.6Z"/><polygon class="cls-1" points="99.6 82.33 98.15 81.29 98.76 80.44 99.9 81.38 99.6 82.33"/><polygon class="cls-1" points="100.23 80.94 99.03 80.08 99.71 79.16 100.99 80.42 100.23 80.94"/><path class="cls-1" d="M46.34,42.75a2.2,2.2,0,0,0,1,.77l.34.11h0a2.23,2.23,0,0,0,1.4-.12,2.25,2.25,0,0,0,1.1-.95c.05-.09.09-.18.14-.28a2.3,2.3,0,0,0-.47-2.45,2.18,2.18,0,0,0-.4-.34,2.58,2.58,0,0,0-.37-.19,2.28,2.28,0,0,0-2.71,3.45Zm0-2.09a2,2,0,1,1,1.07,2.57A2,2,0,0,1,46.36,40.66Z"/><path class="cls-1" d="M47.43,43.23a2,2,0,1,0-1.07-2.57A2,2,0,0,0,47.43,43.23Z"/><polygon class="cls-1" points="50.45 41.61 51.9 42.65 51.29 43.5 50.15 42.55 50.45 41.61"/><polygon class="cls-1" points="49.82 42.99 51.01 43.85 50.34 44.77 49.05 43.52 49.82 42.99"/><path class="cls-1" d="M106.26,57.56a2.5,2.5,0,0,0,.07.54,2.31,2.31,0,0,0,.1.28,2.21,2.21,0,0,0,1.83,1.4h0a2.06,2.06,0,0,0,.7,0h0a2.13,2.13,0,0,0,.43-.13,2.28,2.28,0,0,0-.32-4.32,1.84,1.84,0,0,0-.47-.06,2.16,2.16,0,0,0-1,.16l-.12.06a1.91,1.91,0,0,0-.41.26,2.16,2.16,0,0,0-.7.92h0A2.14,2.14,0,0,0,106.26,57.56Zm.46.7a1.75,1.75,0,0,1-.15-.74,2,2,0,0,1,1-1.73,2.34,2.34,0,0,0,1.09-.24h0a2,2,0,1,1-2,2.71Z"/><path class="cls-1" d="M106.72,58.27a2,2,0,1,0,2-2.72h0a2.21,2.21,0,0,1-1.09.23h0A2,2,0,0,0,106.72,58.27Z"/><path class="cls-1" d="M107.6,55.78a2.21,2.21,0,0,0,1.09-.23,2.07,2.07,0,0,0-.91.14Z"/><polygon class="cls-1" points="106.79 58.98 105.03 59.27 104.86 58.23 106.33 58.1 106.79 58.98"/><polygon class="cls-1" points="106.25 57.55 104.8 57.79 104.63 56.66 106.43 56.64 106.25 57.55"/><path class="cls-1" d="M39.41,67.29a2.24,2.24,0,0,0,1.68,1.37,2.14,2.14,0,0,0,1.29-.13,3.18,3.18,0,0,0,.32-.16,2.27,2.27,0,0,0,1.09-2,2.5,2.5,0,0,0-.07-.54,2.47,2.47,0,0,0-.1-.29,2.08,2.08,0,0,0-.36-.59,2.28,2.28,0,0,0-3.85,2.33Zm1.35-2.69a2,2,0,1,1-1.07,2.57A2,2,0,0,1,40.76,64.6Z"/><path class="cls-1" d="M39.69,67.17a2,2,0,1,0,1.07-2.57A2,2,0,0,0,39.69,67.17Z"/><polygon class="cls-1" points="43.26 64.96 45.02 64.67 45.19 65.7 43.72 65.84 43.26 64.96"/><polygon class="cls-1" points="43.79 66.38 45.25 66.15 45.42 67.27 43.62 67.29 43.79 66.38"/><path class="cls-1" d="M77.37,96.37a2.29,2.29,0,0,0,3,1.24,2.26,2.26,0,0,0,1.32-1.5,2.65,2.65,0,0,0,.09-.49,2.36,2.36,0,0,0-.18-1h0a1.88,1.88,0,0,0-.24-.44,2.26,2.26,0,0,0-1-.78,2.39,2.39,0,0,0-.92-.18,2.71,2.71,0,0,0-.54.08l-.29.1a2.22,2.22,0,0,0-.59.36A2.29,2.29,0,0,0,77.37,96.37Zm1.35-2.69a2,2,0,0,1,2.53,1h0a2.38,2.38,0,0,0,.18,1h0a2,2,0,1,1-2.71-2Z"/><path class="cls-1" d="M77.66,96.25a2,2,0,0,0,3.77-.58h0a2.38,2.38,0,0,1-.18-1h0a2,2,0,0,0-3.59,1.59Z"/><path class="cls-1" d="M81.25,94.66a2.38,2.38,0,0,0,.18,1,1.89,1.89,0,0,0-.14-.93Z"/><polygon class="cls-1" points="78.01 93.75 77.72 91.99 78.75 91.82 78.89 93.29 78.01 93.75"/><polygon class="cls-1" points="79.44 93.22 79.2 91.76 80.33 91.59 80.34 93.39 79.44 93.22"/><path class="cls-1" d="M68.32,28.81a1.89,1.89,0,0,0,.05.23c0,.09.06.18.1.27a2.19,2.19,0,0,0,.21.4,2.26,2.26,0,0,0,1,.84,2.2,2.2,0,0,0,.91.17,2,2,0,0,0,.54-.08,1.4,1.4,0,0,0,.29-.09,2.33,2.33,0,0,0,.59-.36,2.3,2.3,0,0,0,.8-1.42h0a2.18,2.18,0,0,0-.09-1,1.06,1.06,0,0,0-.06-.19,2.28,2.28,0,0,0-4.36.49A2.36,2.36,0,0,0,68.32,28.81Zm.31-.08a1.94,1.94,0,1,1,.12.46,1.39,1.39,0,0,1-.06-.19h0l0-.14a.36.36,0,0,1,0-.1Z"/><path class="cls-1" d="M68.63,28.73v0a.36.36,0,0,0,0,.1l0,.14h0a1.39,1.39,0,0,0,.06.19,2,2,0,1,0-.12-.46Z"/><polygon class="cls-1" points="72.03 30.19 72.32 31.94 71.29 32.11 71.15 30.64 72.03 30.19"/><polygon class="cls-1" points="70.61 30.72 70.85 32.17 69.72 32.35 69.7 30.55 70.61 30.72"/><path class="cls-1" d="M86.22,32.22a2.29,2.29,0,0,0,.7.61,2.37,2.37,0,0,0,.8.27,2.72,2.72,0,0,0,.7,0,2.31,2.31,0,0,0,1.48-.94,2.11,2.11,0,0,0,.3-.6,2.71,2.71,0,0,0,.09-.41,2.28,2.28,0,0,0-4.16-1.56h0a2.38,2.38,0,0,0-.36,1s0,.09,0,.13A2.24,2.24,0,0,0,86.22,32.22Zm-.14-1.65a2,2,0,1,1,1.69,2.22A2,2,0,0,1,86.08,30.57Z"/><path class="cls-1" d="M87.77,32.79a2,2,0,1,0-1.69-2.22A2,2,0,0,0,87.77,32.79Z"/><polygon class="cls-1" points="88.42 33.09 87.78 34.75 86.81 34.38 87.43 33.04 88.42 33.09"/><polygon class="cls-1" points="86.92 32.83 86.39 34.2 85.33 33.79 86.22 32.22 86.92 32.83"/><path class="cls-1" d="M61.66,95.51a2.28,2.28,0,0,0,2.12-3.64,2.57,2.57,0,0,0-.7-.61,2.25,2.25,0,0,0-.51-.2l-.3-.07a2.64,2.64,0,0,0-.69,0A2.26,2.26,0,0,0,60,92h0a1.65,1.65,0,0,0-.21.42,2.72,2.72,0,0,0-.13.49A2.27,2.27,0,0,0,61.66,95.51ZM60,93a2,2,0,1,1,3.9.53A2,2,0,0,1,60,93Z"/><path class="cls-1" d="M61.7,95.2a2,2,0,0,0,2.21-1.68A2,2,0,1,0,61.7,95.2Z"/><polygon class="cls-1" points="61.58 91 62.22 89.34 63.19 89.72 62.57 91.06 61.58 91"/><polygon class="cls-1" points="63.08 91.26 63.61 89.89 64.67 90.31 63.78 91.87 63.08 91.26"/><path class="cls-1" d="M103.94,75.47A2.28,2.28,0,0,0,105,77l.33.17a3.05,3.05,0,0,0,.54.14,2.28,2.28,0,0,0,.62-4.52A2.28,2.28,0,0,0,104.2,74a2.28,2.28,0,0,0-.21.51l-.06.3A2.27,2.27,0,0,0,103.94,75.47Zm.3-.65A2,2,0,1,1,105.93,77,2,2,0,0,1,104.24,74.82Z"/><path class="cls-1" d="M105.93,77a2,2,0,1,0-1.69-2.22A2,2,0,0,0,105.93,77Z"/><polygon class="cls-1" points="103.94 75.47 102.28 74.83 102.65 73.86 103.99 74.48 103.94 75.47"/><polygon class="cls-1" points="104.2 73.97 102.83 73.44 103.24 72.38 104.81 73.27 104.2 73.97"/><path class="cls-1" d="M43.5,51.26a2.3,2.3,0,0,0,2.3-1.14,2.85,2.85,0,0,0,.2-.51,2.05,2.05,0,0,0,.06-1,2.34,2.34,0,0,0-.94-1.48,2.14,2.14,0,0,0-.64-.32l-.37-.08a2.28,2.28,0,0,0-.61,4.52Zm-1.64-2.52A2,2,0,1,1,43.54,51,2,2,0,0,1,41.86,48.74Z"/><path class="cls-1" d="M43.54,51a2,2,0,1,0-1.68-2.21A2,2,0,0,0,43.54,51Z"/><polygon class="cls-1" points="46.05 48.62 47.72 49.26 47.34 50.23 46 49.61 46.05 48.62"/><polygon class="cls-1" points="45.8 50.12 47.17 50.65 46.75 51.71 45.19 50.82 45.8 50.12"/><path class="cls-1" d="M104.07,49.78a.06.06,0,0,0,0,0,2.21,2.21,0,0,0,.21.5,1.67,1.67,0,0,0,.17.26,2.23,2.23,0,0,0,.49.48,2.34,2.34,0,0,0,1.31.42,2.31,2.31,0,0,0,.46,0,2,2,0,0,0,.52-.16h0a2.58,2.58,0,0,0,.42-.25A2.29,2.29,0,0,0,105.75,47h0a2.15,2.15,0,0,0-.83.38l0,0a2.28,2.28,0,0,0-.88,1.51A2.23,2.23,0,0,0,104.07,49.78Zm.64.61a2,2,0,1,1,2.75.38A2,2,0,0,1,104.71,50.39Z"/><path class="cls-1" d="M104.71,50.39a2,2,0,1,0,.37-2.75A2,2,0,0,0,104.71,50.39Z"/><polygon class="cls-1" points="104.95 51.06 103.33 51.79 102.9 50.83 104.29 50.33 104.95 51.06"/><polygon class="cls-1" points="104.08 49.82 102.73 50.42 102.28 49.37 104.01 48.9 104.08 49.82"/><path class="cls-1" d="M41.91,76.27a2.28,2.28,0,0,0,3.2.44A2.23,2.23,0,0,0,46,75.2a2.09,2.09,0,0,0-.06-.93,2.17,2.17,0,0,0-.38-.76A2.07,2.07,0,0,0,45,73a2.25,2.25,0,0,0-1.76-.37,1.82,1.82,0,0,0-.58.2h0a2.32,2.32,0,0,0-.36.22A2.28,2.28,0,0,0,41.91,76.27Zm.62-2.94a2,2,0,1,1-.37,2.75A2,2,0,0,1,42.53,73.33Z"/><path class="cls-1" d="M42.16,76.08a2,2,0,1,0,.37-2.75A2,2,0,0,0,42.16,76.08Z"/><polygon class="cls-1" points="45.04 73.03 46.67 72.3 47.09 73.26 45.71 73.77 45.04 73.03"/><polygon class="cls-1" points="45.92 74.27 47.27 73.67 47.72 74.72 45.98 75.2 45.92 74.27"/><path class="cls-1" d="M85.62,93.88h0a1.74,1.74,0,0,0,.13.36,2.28,2.28,0,1,0,2.39-3.17,2.2,2.2,0,0,0-.92.07,2.49,2.49,0,0,0-.51.21l-.25.17A2.07,2.07,0,0,0,86,92,2.28,2.28,0,0,0,85.62,93.88Zm1-2.11a2,2,0,1,1-.38,2.76A2,2,0,0,1,86.65,91.77Z"/><path class="cls-1" d="M86.27,94.53a2,2,0,1,0,.38-2.76A2,2,0,0,0,86.27,94.53Z"/><polygon class="cls-1" points="85.98 92.02 85.25 90.39 86.2 89.97 86.71 91.35 85.98 92.02"/><polygon class="cls-1" points="87.22 91.14 86.62 89.79 87.66 89.34 88.14 91.08 87.22 91.14"/><path class="cls-1" d="M60,31.36h0a2.45,2.45,0,0,0,.38.78l.06.07a2.29,2.29,0,0,0,3.14.36,2.23,2.23,0,0,0,.48-.49,2.29,2.29,0,0,0,.39-1.68h0a2.61,2.61,0,0,0-.23-.7,2.11,2.11,0,0,0-.21-.31,2.28,2.28,0,0,0-4,2Zm1-2.17A2,2,0,1,1,60.59,32,2,2,0,0,1,61,29.19Z"/><path class="cls-1" d="M60.59,32A2,2,0,1,0,61,29.19,2,2,0,0,0,60.59,32Z"/><polygon class="cls-1" points="64.02 32.08 64.75 33.7 63.79 34.13 63.28 32.74 64.02 32.08"/><polygon class="cls-1" points="62.78 32.95 63.38 34.3 62.33 34.75 61.85 33.02 62.78 32.95"/><path class="cls-1" d="M96.67,38.65a2.39,2.39,0,0,0,.41.83,3.59,3.59,0,0,0,.39.39l.26.17a2.3,2.3,0,0,0,2.41-.07,2.32,2.32,0,0,0,.44-.39,1.83,1.83,0,0,0,.26-.36,2.28,2.28,0,0,0-3.27-3h0a2.32,2.32,0,0,0-.67.72l0,.06h0A2.28,2.28,0,0,0,96.67,38.65Zm.51-1.57a2,2,0,1,1,.7,2.69A2,2,0,0,1,97.18,37.08Z"/><path class="cls-1" d="M97.88,39.77a2,2,0,1,0-.7-2.69A2,2,0,0,0,97.88,39.77Z"/><polygon class="cls-1" points="98.37 40.29 97.14 41.59 96.39 40.87 97.47 39.87 98.37 40.29"/><polygon class="cls-1" points="97.08 39.48 96.07 40.55 95.25 39.76 96.67 38.65 97.08 39.48"/><path class="cls-1" d="M49.77,87.72a2.28,2.28,0,0,0,3.12-.82,2.3,2.3,0,0,0,.23-1.73,2.39,2.39,0,0,0-.41-.83,2.87,2.87,0,0,0-.39-.39l-.26-.17a2.3,2.3,0,0,0-2.41.07,2.32,2.32,0,0,0-.44.39,1.83,1.83,0,0,0-.26.36A2.27,2.27,0,0,0,49.77,87.72Zm-.55-3a2,2,0,1,1,.7,2.69A2,2,0,0,1,49.22,84.76Z"/><path class="cls-1" d="M49.92,87.45a2,2,0,1,0-.7-2.69A2,2,0,0,0,49.92,87.45Z"/><polygon class="cls-1" points="51.42 83.53 52.65 82.23 53.4 82.95 52.32 83.95 51.42 83.53"/><polygon class="cls-1" points="52.71 84.34 53.72 83.27 54.54 84.06 53.12 85.17 52.71 84.34"/><path class="cls-1" d="M96.82,87.16h0a1.82,1.82,0,0,0,.38.45,2.31,2.31,0,0,0,3.48-.56,2.27,2.27,0,0,0-2.55-3.35,2.39,2.39,0,0,0-.83.41,2,2,0,0,0-.38.39,2.27,2.27,0,0,0-.18.25,2.36,2.36,0,0,0-.25.65A2.28,2.28,0,0,0,96.82,87.16ZM97,84.91a2,2,0,1,1,.7,2.69A2,2,0,0,1,97,84.91Z"/><path class="cls-1" d="M97.73,87.6a2,2,0,1,0-.7-2.69A2,2,0,0,0,97.73,87.6Z"/><polygon class="cls-1" points="96.5 85.4 95.21 84.17 95.93 83.41 96.93 84.5 96.5 85.4"/><polygon class="cls-1" points="97.31 84.11 96.25 83.1 97.04 82.28 98.14 83.7 97.31 84.11"/><path class="cls-1" d="M49.42,39.49h0a1.89,1.89,0,0,0,.4.34h0l.09.06a2.25,2.25,0,0,0,1.73.23,2.39,2.39,0,0,0,.83-.41,2,2,0,0,0,.38-.39,2.27,2.27,0,0,0,.18-.25,2.36,2.36,0,0,0,.25-.65A2.28,2.28,0,0,0,53,36.66a2.38,2.38,0,0,0-.39-.45,1.9,1.9,0,0,0-.37-.26,2.28,2.28,0,0,0-2.79,3.54Zm-.05-2.56a2,2,0,1,1,.7,2.69A2,2,0,0,1,49.37,36.93Z"/><path class="cls-1" d="M50.07,39.62a2,2,0,1,0-.7-2.69A2,2,0,0,0,50.07,39.62Z"/><polygon class="cls-1" points="53.29 38.42 54.58 39.65 53.86 40.41 52.86 39.32 53.29 38.42"/><polygon class="cls-1" points="52.48 39.71 53.55 40.72 52.76 41.54 51.65 40.12 52.48 39.71"/><path class="cls-1" d="M106.44,62.3a1.77,1.77,0,0,0,.06.3,2.35,2.35,0,0,0,.27.63,2.31,2.31,0,0,0,1.49,1h0a1.81,1.81,0,0,0,.57,0h0a2.34,2.34,0,0,0,.45-.07,2.28,2.28,0,0,0-.3-4.47h0a2.07,2.07,0,0,0-.7,0h0l-.14,0a2.27,2.27,0,0,0-1.68,1.94A2.53,2.53,0,0,0,106.44,62.3Zm1.76-2.19a2,2,0,1,1-1.4,2.41A2,2,0,0,1,108.2,60.11Z"/><path class="cls-1" d="M106.8,62.52a2,2,0,1,0,1.4-2.41A2,2,0,0,0,106.8,62.52Z"/><polygon class="cls-1" points="106.77 63.23 104.99 63.28 104.96 62.24 106.44 62.3 106.77 63.23"/><polygon class="cls-1" points="106.44 61.75 104.96 61.79 104.94 60.65 106.73 60.87 106.44 61.75"/><path class="cls-1" d="M38.88,62.39A2.29,2.29,0,0,0,41.67,64,2.24,2.24,0,0,0,43.06,63a2.29,2.29,0,0,0,.29-.88,2.07,2.07,0,0,0-.06-.85,2.26,2.26,0,0,0-1.76-1.65,1.79,1.79,0,0,0-.57,0,2.34,2.34,0,0,0-.45.07A2.29,2.29,0,0,0,38.88,62.39Zm1.71-2.49a2,2,0,1,1-1.4,2.4A2,2,0,0,1,40.59,59.9Z"/><path class="cls-1" d="M39.19,62.3a2,2,0,1,0,1.4-2.4A2,2,0,0,0,39.19,62.3Z"/><polygon class="cls-1" points="43.02 60.59 44.8 60.54 44.83 61.58 43.35 61.52 43.02 60.59"/><polygon class="cls-1" points="43.35 62.07 44.83 62.03 44.85 63.17 43.06 62.95 43.35 62.07"/><path class="cls-1" d="M72.51,95.87h0a3.21,3.21,0,0,0,.07.43A2.28,2.28,0,1,0,77,95.15a2.26,2.26,0,0,0-1.93-1.68,2.53,2.53,0,0,0-.55,0,1.59,1.59,0,0,0-.3.06,2.27,2.27,0,0,0-1.65,1.74A2.43,2.43,0,0,0,72.51,95.87Zm1.78-2a2,2,0,1,1-1.4,2.41A2,2,0,0,1,74.29,93.83Z"/><path class="cls-1" d="M72.89,96.24a2,2,0,1,0,1.4-2.41A2,2,0,0,0,72.89,96.24Z"/><polygon class="cls-1" points="73.58 93.8 73.53 92.02 74.57 92 74.51 93.47 73.58 93.8"/><polygon class="cls-1" points="75.06 93.47 75.02 92 76.16 91.97 75.94 93.76 75.06 93.47"/><path class="cls-1" d="M72.8,28.67a.54.54,0,0,0,0,.1h0a2.25,2.25,0,0,0,1.9,1.58,2.53,2.53,0,0,0,.55,0,1.59,1.59,0,0,0,.3-.06,2.29,2.29,0,0,0,1.66-1.75h0a2.88,2.88,0,0,0,0-.59h0a3.21,3.21,0,0,0-.07-.43,2.28,2.28,0,0,0-4.47.25A2.18,2.18,0,0,0,72.8,28.67Zm1.7-2.49a2,2,0,1,1-1.4,2.41A2,2,0,0,1,74.5,26.18Z"/><path class="cls-1" d="M73.1,28.59a2,2,0,1,0,1.4-2.41A2,2,0,0,0,73.1,28.59Z"/><polygon class="cls-1" points="76.22 30.02 76.26 31.8 75.22 31.82 75.28 30.35 76.22 30.02"/><polygon class="cls-1" points="74.73 30.35 74.77 31.82 73.63 31.84 73.86 30.06 74.73 30.35"/><path class="cls-1" d="M91.45,35.07a2.28,2.28,0,0,0,2.28-.65h0a2.21,2.21,0,0,0,.45-.7h0a1.83,1.83,0,0,0,.08-.25l.06-.26a2.28,2.28,0,0,0-4.12-1.66,2.18,2.18,0,0,0-.3.59h0a.36.36,0,0,0,0,.11A2.29,2.29,0,0,0,91.45,35.07Zm-1.28-2.72a2,2,0,1,1,3.79,1s0,.11,0,.16a2,2,0,0,0-.44.68v0a2,2,0,0,1-3.29-1.9Z"/><path class="cls-1" d="M91.54,34.77a2,2,0,0,0,1.92-.52v0a2,2,0,0,1,.44-.68s0-.11,0-.16a2,2,0,1,0-2.42,1.38Z"/><path class="cls-1" d="M93.46,34.25a2,2,0,0,0,.45-.7,2,2,0,0,0-.44.68Z"/><polygon class="cls-1" points="92.14 35.15 91.29 36.71 90.37 36.21 91.17 34.97 92.14 35.15"/><polygon class="cls-1" points="90.69 34.69 89.98 35.99 88.99 35.43 90.08 34 90.69 34.69"/><path class="cls-1" d="M57.29,93.45a2.28,2.28,0,0,0,2.54-1,2,2,0,0,0,.2-.41h0l.06-.19a2.28,2.28,0,0,0-3.4-2.54,3,3,0,0,0-.45.35h0a2.47,2.47,0,0,0-.39.55h0a2.14,2.14,0,0,0-.16.42l0,.13A2.29,2.29,0,0,0,57.29,93.45ZM56,90.72a1.66,1.66,0,0,1,.12-.31,2.24,2.24,0,0,0,.39-.56,2,2,0,1,1-.51.87Z"/><path class="cls-1" d="M57.38,93.15a2,2,0,1,0-.87-3.3,2.24,2.24,0,0,1-.39.56,1.66,1.66,0,0,0-.12.31A2,2,0,0,0,57.38,93.15Z"/><path class="cls-1" d="M56.12,90.41a2.24,2.24,0,0,0,.39-.56A2,2,0,0,0,56.12,90.41Z"/><polygon class="cls-1" points="57.82 88.97 58.67 87.41 59.59 87.9 58.79 89.15 57.82 88.97"/><polygon class="cls-1" points="59.27 89.42 59.98 88.13 60.97 88.69 59.88 90.12 59.27 89.42"/><path class="cls-1" d="M102.17,80.27a2.26,2.26,0,0,0,.26.37h0a2.26,2.26,0,0,0,1,.67h0l.14,0a1.7,1.7,0,0,0,.31.06,2.28,2.28,0,0,0,1.49-4.2h0A1.29,1.29,0,0,0,105,77h0l-.25-.08a2.27,2.27,0,0,0-2.8,1.59A2.25,2.25,0,0,0,102.17,80.27Zm.44.1a2,2,0,1,1,1,.68h0a2.13,2.13,0,0,0-.85-.62Z"/><path class="cls-1" d="M102.61,80.37l.13,0a2.13,2.13,0,0,1,.85.62h0a2,2,0,1,0-1-.68Z"/><path class="cls-1" d="M102.61,80.37a2,2,0,0,0,1,.67,2.13,2.13,0,0,0-.85-.62Z"/><polygon class="cls-1" points="101.87 79.23 100.31 78.38 100.81 77.46 102.06 78.25 101.87 79.23"/><polygon class="cls-1" points="102.33 77.78 101.04 77.07 101.59 76.08 103.03 77.17 102.33 77.78"/><path class="cls-1" d="M44.48,46.82a2.14,2.14,0,0,0,.64.32h0l.07,0a2.28,2.28,0,0,0,2.45-3.54,2.22,2.22,0,0,0-1.24-.86l-.07,0a2.28,2.28,0,0,0-1.86,4.07Zm-.57-2.38a2,2,0,1,1,1.37,2.42A2,2,0,0,1,43.91,44.44Z"/><path class="cls-1" d="M45.28,46.86a2,2,0,1,0-1.37-2.42A2,2,0,0,0,45.28,46.86Z"/><polygon class="cls-1" points="48.09 44.89 49.65 45.74 49.15 46.66 47.9 45.86 48.09 44.89"/><polygon class="cls-1" points="47.63 46.34 48.92 47.05 48.37 48.04 46.93 46.95 47.63 46.34"/><path class="cls-1" d="M105.43,53.83a1.91,1.91,0,0,0,.14.52c0,.09.08.19.13.28a2.24,2.24,0,0,0,1.43,1.09,2.42,2.42,0,0,0,.47.07,2.34,2.34,0,0,0,1.09-.24h0l.11-.07a1.67,1.67,0,0,0,.28-.18,2.28,2.28,0,0,0-1.85-4h0a2.4,2.4,0,0,0-.52.16l-.16.08a2.3,2.3,0,0,0-1.07,1.39A2.23,2.23,0,0,0,105.43,53.83Zm.55.64a2,2,0,1,1,2.68.74l0,0a2.16,2.16,0,0,0-1,.16l-.12.06A1.92,1.92,0,0,1,106,54.47Z"/><path class="cls-1" d="M106,54.47a1.92,1.92,0,0,0,1.56,1l.12-.06a2.16,2.16,0,0,1,1-.16l0,0a2,2,0,1,0-2.68-.74Z"/><path class="cls-1" d="M107.54,55.46a2,2,0,0,0,1.08-.22,2.16,2.16,0,0,0-1,.16Z"/><polygon class="cls-1" points="106.13 55.17 104.42 55.67 104.13 54.67 105.57 54.35 106.13 55.17"/><polygon class="cls-1" points="105.43 53.82 104.02 54.24 103.7 53.14 105.49 52.9 105.43 53.82"/><path class="cls-1" d="M40.29,71.74a2.28,2.28,0,0,0,2.4,1.12h0a2.49,2.49,0,0,0,.58-.2h0l.12-.06a2.25,2.25,0,0,0,1.07-1.38,2.29,2.29,0,0,0-.08-1.46c0-.09-.08-.18-.13-.27a2.62,2.62,0,0,0-.43-.55,2.38,2.38,0,0,0-1.13-.57,2.24,2.24,0,0,0-1.55.26l-.06,0A2.29,2.29,0,0,0,40.29,71.74Zm1-2.84a2,2,0,1,1-.74,2.69A2,2,0,0,1,41.3,68.9Z"/><path class="cls-1" d="M40.56,71.59a2,2,0,1,0,.74-2.69A2,2,0,0,0,40.56,71.59Z"/><polygon class="cls-1" points="43.83 68.94 45.53 68.44 45.83 69.44 44.39 69.76 43.83 68.94"/><polygon class="cls-1" points="44.53 70.29 45.94 69.88 46.26 70.98 44.47 71.22 44.53 70.29"/><path class="cls-1" d="M81.25,94.66h0a2.38,2.38,0,0,0,.18,1h0l.12.24.12.2a2.28,2.28,0,0,0,4.08-1.87h0a1.5,1.5,0,0,0-.11-.34,0,0,0,0,0,0,0,1.51,1.51,0,0,0-.11-.22,2.28,2.28,0,0,0-1.38-1.08,2.2,2.2,0,0,0-1.45.09,1.66,1.66,0,0,0-.27.13,2.1,2.1,0,0,0-.55.43,2.32,2.32,0,0,0-.53.94A2.64,2.64,0,0,0,81.25,94.66Zm.51,1a2.36,2.36,0,0,0-.18-1h0a2,2,0,0,1,1-1.54,2,2,0,1,1-.74,2.68A.52.52,0,0,1,81.76,95.62Z"/><path class="cls-1" d="M81.57,94.61h0a2.36,2.36,0,0,1,.18,1,.52.52,0,0,0,.06.13,2,2,0,1,0,.74-2.68A2,2,0,0,0,81.57,94.61Z"/><path class="cls-1" d="M81.76,95.62a2.36,2.36,0,0,0-.18-1h0A1.88,1.88,0,0,0,81.76,95.62Z"/><polygon class="cls-1" points="81.86 93.23 81.36 91.52 82.36 91.22 82.68 92.67 81.86 93.23"/><polygon class="cls-1" points="83.21 92.52 82.8 91.11 83.89 90.8 84.13 92.58 83.21 92.52"/><path class="cls-1" d="M64.18,29.69h0a2,2,0,0,0,.23.7h0l0,.06a2.3,2.3,0,0,0,2.84,1l.27-.13a2.62,2.62,0,0,0,.55-.43,2.27,2.27,0,0,0,.58-1.18,2.41,2.41,0,0,0,0-.71h0l0-.14a.36.36,0,0,1,0-.1v0a2.14,2.14,0,0,0-.22-.52l-.09-.15a2.28,2.28,0,0,0-4.14,1.63Zm1.28-2.07a2,2,0,0,1,2.68.74,2.11,2.11,0,0,1,.18.45,1.89,1.89,0,0,0,.05.23,2,2,0,1,1-2.91-1.42Z"/><path class="cls-1" d="M64.72,30.31A2,2,0,0,0,68.37,29a1.89,1.89,0,0,1-.05-.23,2.11,2.11,0,0,0-.18-.45,2,2,0,1,0-3.42,1.95Z"/><polygon class="cls-1" points="68.1 30.89 68.6 32.6 67.6 32.89 67.28 31.45 68.1 30.89"/><polygon class="cls-1" points="66.75 31.59 67.16 33.01 66.07 33.32 65.83 31.53 66.75 31.59"/><path class="cls-1" d="M99.58,41.77a2.31,2.31,0,0,0,.3.87,2,2,0,0,0,.33.44l.23.2a2.25,2.25,0,0,0,.6.34,2.26,2.26,0,0,0,2.46-.57l.14-.16a2.28,2.28,0,0,0-3.06-3.31h0a2.32,2.32,0,0,0-.44.39l-.1.11A2.29,2.29,0,0,0,99.58,41.77Zm.71-1.5a2,2,0,1,1,.34,2.76A2,2,0,0,1,100.29,40.27Z"/><path class="cls-1" d="M100.63,43a2,2,0,1,0-.34-2.76A2,2,0,0,0,100.63,43Z"/><polygon class="cls-1" points="101.04 43.62 99.66 44.74 99 43.92 100.21 43.08 101.04 43.62"/><polygon class="cls-1" points="99.88 42.64 98.73 43.57 98.02 42.67 99.58 41.77 99.88 42.64"/><path class="cls-1" d="M46.55,84.14a2.27,2.27,0,0,0,2.66.1h0a2.32,2.32,0,0,0,.44-.39l.1-.11a2.24,2.24,0,0,0,.46-1.69,2.37,2.37,0,0,0-.63-1.31l-.23-.2a2.25,2.25,0,0,0-.6-.34,2.15,2.15,0,0,0-.82-.14,2.56,2.56,0,0,0-.39,0,2.29,2.29,0,0,0-1.39.84.21.21,0,0,1,0,.06,2.07,2.07,0,0,0-.19.32A2.28,2.28,0,0,0,46.55,84.14Zm-.26-2.86a2.26,2.26,0,0,0,1.21-.63l.23-.27a2,2,0,0,1,1.43.41,2,2,0,1,1-2.87.49Z"/><path class="cls-1" d="M46.74,83.89a2,2,0,0,0,2.42-3.1,2,2,0,0,0-1.43-.41l-.23.27a2.26,2.26,0,0,1-1.21.63A2,2,0,0,0,46.74,83.89Z"/><path class="cls-1" d="M46.29,81.28a2.26,2.26,0,0,0,1.21-.63l.23-.27a1.92,1.92,0,0,0-.58.16,1.75,1.75,0,0,0-.47.29,2,2,0,0,0-.28.3Z"/><polygon class="cls-1" points="48.75 80.2 50.13 79.08 50.79 79.89 49.58 80.74 48.75 80.2"/><polygon class="cls-1" points="49.91 81.18 51.06 80.25 51.77 81.15 50.21 82.05 49.91 81.18"/><path class="cls-1" d="M93.08,89.31a2.23,2.23,0,0,0,.13.44h0a2.22,2.22,0,0,0,.7.92h0a1.58,1.58,0,0,0,.39.24,2.29,2.29,0,0,0,2.51-3.76h0l-.11-.09a2.31,2.31,0,0,0-3.2.4A2.24,2.24,0,0,0,93.08,89.31Zm.39.24a2,2,0,1,1,.72.93,2.26,2.26,0,0,0-.5-.73A2.09,2.09,0,0,0,93.47,89.55Z"/><path class="cls-1" d="M93.47,89.55a2.09,2.09,0,0,1,.22.2,2.26,2.26,0,0,1,.5.73,2,2,0,1,0-.72-.93Z"/><path class="cls-1" d="M93.47,89.55a1.94,1.94,0,0,0,.63.87l.09.06a2.26,2.26,0,0,0-.5-.73A2.09,2.09,0,0,0,93.47,89.55Z"/><polygon class="cls-1" points="93.18 88.07 92.06 86.69 92.87 86.03 93.72 87.24 93.18 88.07"/><polygon class="cls-1" points="94.15 86.91 93.23 85.76 94.12 85.05 95.03 86.61 94.15 86.91"/><path class="cls-1" d="M52.58,36.21a2.38,2.38,0,0,0,.39.45l.11.09a2.27,2.27,0,0,0,3.2-.4,2.29,2.29,0,0,0,.44-1.81A2.26,2.26,0,0,0,56,33.22l-.08-.07a2.28,2.28,0,0,0-3.3,3.06Zm.35-2.47a2,2,0,1,1,.34,2.76A2,2,0,0,1,52.93,33.74Z"/><path class="cls-1" d="M53.27,36.5a2,2,0,1,0-.34-2.76A2,2,0,0,0,53.27,36.5Z"/><polygon class="cls-1" points="56.62 35.75 57.73 37.13 56.92 37.79 56.07 36.58 56.62 35.75"/><polygon class="cls-1" points="55.64 36.91 56.56 38.06 55.67 38.77 54.76 37.21 55.64 36.91"/><path class="cls-1" d="M106.11,66.5a1.58,1.58,0,0,0,0,.31,2.28,2.28,0,0,0,2.55,2,.9.9,0,0,0,.16,0,2.27,2.27,0,0,0,1.82-2.51,2.3,2.3,0,0,0-1.82-2h0a2.13,2.13,0,0,0-.57,0h-.15A2.29,2.29,0,0,0,106.11,66.5Zm2-1.92a2,2,0,1,1-1.71,2.19A2,2,0,0,1,108.14,64.58Z"/><path class="cls-1" d="M106.43,66.77a2,2,0,1,0,1.71-2.19A2,2,0,0,0,106.43,66.77Z"/><polygon class="cls-1" points="106.31 67.47 104.54 67.29 104.65 66.25 106.11 66.5 106.31 67.47"/><polygon class="cls-1" points="106.18 65.96 104.71 65.8 104.84 64.67 106.58 65.13 106.18 65.96"/><path class="cls-1" d="M39.14,57.57a2.3,2.3,0,0,0,1.82,2h0a2.13,2.13,0,0,0,.57,0h.16a2.31,2.31,0,0,0,2-2.24,3,3,0,0,0,0-.31,2.25,2.25,0,0,0-.73-1.4h0a1.88,1.88,0,0,0-.36-.27A2.31,2.31,0,0,0,41.39,55l-.26,0-.19,0A2.28,2.28,0,0,0,39.14,57.57Zm2-2.23h.14a2.34,2.34,0,0,0,1.18.32h0a2,2,0,0,1,.87,1.4,2,2,0,1,1-2.2-1.71Z"/><path class="cls-1" d="M39.45,57.54a2,2,0,1,0,3.91-.49,2,2,0,0,0-.87-1.4h0a2.34,2.34,0,0,1-1.18-.32h-.14A2,2,0,0,0,39.45,57.54Z"/><path class="cls-1" d="M41.3,55.33a2.34,2.34,0,0,0,1.18.32h0A1.9,1.9,0,0,0,41.3,55.33Z"/><polygon class="cls-1" points="43.48 56.34 45.25 56.53 45.14 57.57 43.69 57.31 43.48 56.34"/><polygon class="cls-1" points="43.62 57.86 45.08 58.02 44.95 59.15 43.21 58.69 43.62 57.86"/><path class="cls-1" d="M68,95.7a1.08,1.08,0,0,0,0,.19,2.26,2.26,0,0,0,.11.37,2.28,2.28,0,0,0,4.35-.38h0a2.32,2.32,0,0,0,0-.59h0s0-.09,0-.13a2.28,2.28,0,0,0-2.54-2,2.34,2.34,0,0,0-1.45.78,3.55,3.55,0,0,0-.23.31A2.27,2.27,0,0,0,68,95.7Zm.37.25a2.37,2.37,0,0,0,.32-1.18,1.83,1.83,0,0,0,0-.47A2,2,0,0,1,70,93.46,2,2,0,1,1,68.39,96Z"/><path class="cls-1" d="M68.39,96A2,2,0,1,0,70,93.46a2,2,0,0,0-1.38.84,1.83,1.83,0,0,1,0,.47A2.37,2.37,0,0,1,68.39,96Z"/><path class="cls-1" d="M68.31,95.34a1.67,1.67,0,0,0,0,.32,1.36,1.36,0,0,0,.06.29,2.37,2.37,0,0,0,.32-1.18,1.83,1.83,0,0,0,0-.47,1.55,1.55,0,0,0-.26.55A2,2,0,0,0,68.31,95.34Z"/><polygon class="cls-1" points="69.33 93.34 69.52 91.57 70.56 91.68 70.3 93.14 69.33 93.34"/><polygon class="cls-1" points="70.85 93.21 71.01 91.74 72.14 91.88 71.68 93.62 70.85 93.21"/><path class="cls-1" d="M77.24,28.54h0a.61.61,0,0,0,0,.14A2.27,2.27,0,0,0,79,30.61a2.34,2.34,0,0,0,.84.06,2.28,2.28,0,0,0,1.78-1.3,2.12,2.12,0,0,0,.22-.93,1.72,1.72,0,0,0,0-.32,2.28,2.28,0,0,0-4.49-.18h0A1.94,1.94,0,0,0,77.24,28.54Zm2-2.09a2,2,0,1,1-1.71,2.2A2,2,0,0,1,79.27,26.45Z"/><path class="cls-1" d="M77.56,28.65a2,2,0,1,0,1.71-2.2A2,2,0,0,0,77.56,28.65Z"/><polygon class="cls-1" points="80.46 30.48 80.27 32.25 79.23 32.14 79.49 30.68 80.46 30.48"/><polygon class="cls-1" points="78.94 30.61 78.78 32.08 77.65 31.95 78.11 30.2 78.94 30.61"/><circle class="cls-1" cx="75.22" cy="36.75" r="1.39"/><circle class="cls-1" cx="75.22" cy="36.75" r="1.61"/><polygon class="cls-1" points="76.19 35.47 76.19 33.21 75.4 33.21 75.4 35.14 76.19 35.47"/><polygon class="cls-1" points="74.7 35.23 74.7 33.32 73.93 33.32 74.02 35.68 74.7 35.23"/><circle class="cls-1" cx="75.4" cy="87.15" r="1.39"/><circle class="cls-1" cx="75.4" cy="87.15" r="1.61"/><polygon class="cls-1" points="74.44 88.44 74.44 90.69 75.22 90.69 75.22 88.76 74.44 88.44"/><polygon class="cls-1" points="75.92 88.68 75.92 90.59 76.69 90.59 76.6 88.22 75.92 88.68"/><circle class="cls-1" cx="100.5" cy="61.86" r="1.39"/><circle class="cls-1" cx="100.5" cy="61.86" r="1.61"/><polygon class="cls-1" points="101.78 62.83 104.04 62.83 104.04 62.04 102.11 62.04 101.78 62.83"/><polygon class="cls-1" points="102.02 61.35 103.94 61.35 103.94 60.57 101.57 60.66 102.02 61.35"/><circle class="cls-1" cx="50.13" cy="62.04" r="1.39"/><circle class="cls-1" cx="50.13" cy="62.04" r="1.61"/><polygon class="cls-1" points="48.84 61.08 46.59 61.08 46.59 61.87 48.52 61.87 48.84 61.08"/><polygon class="cls-1" points="48.6 62.56 46.69 62.56 46.69 63.34 49.06 63.24 48.6 62.56"/><circle class="cls-1" cx="93.06" cy="44.07" r="1.39"/><circle class="cls-1" cx="93.06" cy="44.07" r="1.61"/><polygon class="cls-1" points="94.65 43.84 96.24 42.25 95.69 41.69 94.32 43.06 94.65 43.84"/><polygon class="cls-1" points="93.77 42.63 95.12 41.27 94.57 40.73 92.97 42.46 93.77 42.63"/><circle class="cls-1" cx="57.57" cy="79.84" r="1.39"/><circle class="cls-1" cx="57.57" cy="79.84" r="1.61"/><polygon class="cls-1" points="55.98 80.06 54.38 81.66 54.94 82.22 56.3 80.85 55.98 80.06"/><polygon class="cls-1" points="56.85 81.28 55.5 82.63 56.05 83.18 57.66 81.44 56.85 81.28"/><circle class="cls-1" cx="93.19" cy="79.71" r="1.39"/><circle class="cls-1" cx="93.19" cy="79.71" r="1.61"/><polygon class="cls-1" points="93.41 81.3 95.01 82.89 95.56 82.34 94.2 80.97 93.41 81.3"/><polygon class="cls-1" points="94.63 80.42 95.98 81.77 96.53 81.22 94.79 79.62 94.63 80.42"/><circle class="cls-1" cx="57.44" cy="44.2" r="1.39"/><circle class="cls-1" cx="57.44" cy="44.2" r="1.61"/><polygon class="cls-1" points="57.21 42.61 55.62 41.01 55.06 41.57 56.43 42.94 57.21 42.61"/><polygon class="cls-1" points="56 43.49 54.64 42.13 54.1 42.68 55.83 44.29 56 43.49"/><circle class="cls-1" cx="84.87" cy="38.64" r="1.39"/><circle class="cls-1" cx="84.87" cy="38.64" r="1.61"/><polygon class="cls-1" points="86.25 37.82 87.11 35.73 86.39 35.43 85.65 37.22 86.25 37.82"/><polygon class="cls-1" points="84.97 37.03 85.7 35.26 84.99 34.97 84.17 37.19 84.97 37.03"/><circle class="cls-1" cx="65.76" cy="85.27" r="1.39"/><circle class="cls-1" cx="65.76" cy="85.27" r="1.61"/><polygon class="cls-1" points="64.38 86.09 63.51 88.17 64.24 88.47 64.98 86.69 64.38 86.09"/><polygon class="cls-1" points="65.65 86.88 64.92 88.64 65.64 88.94 66.46 86.72 65.65 86.88"/><circle class="cls-1" cx="98.62" cy="71.51" r="1.39"/><circle class="cls-1" cx="98.62" cy="71.51" r="1.61"/><polygon class="cls-1" points="99.43 72.9 101.52 73.76 101.82 73.03 100.03 72.29 99.43 72.9"/><polygon class="cls-1" points="100.22 71.62 101.99 72.35 102.28 71.64 100.06 70.81 100.22 71.62"/><circle class="cls-1" cx="52.01" cy="52.39" r="1.39"/><circle class="cls-1" cx="52.01" cy="52.39" r="1.61"/><polygon class="cls-1" points="51.19 51.01 49.11 50.15 48.81 50.87 50.59 51.61 51.19 51.01"/><polygon class="cls-1" points="50.4 52.29 48.64 51.55 48.34 52.27 50.56 53.09 50.4 52.29"/><circle class="cls-1" cx="98.55" cy="52.22" r="1.39"/><circle class="cls-1" cx="98.55" cy="52.22" r="1.61"/><polygon class="cls-1" points="100.1 52.63 102.19 51.76 101.89 51.03 100.1 51.77 100.1 52.63"/><polygon class="cls-1" points="99.76 51.16 101.52 50.43 101.23 49.72 99.08 50.71 99.76 51.16"/><circle class="cls-1" cx="52.08" cy="71.68" r="1.39"/><circle class="cls-1" cx="52.08" cy="71.68" r="1.61"/><polygon class="cls-1" points="50.52 71.28 48.44 72.14 48.74 72.87 50.52 72.13 50.52 71.28"/><polygon class="cls-1" points="50.87 72.74 49.1 73.47 49.4 74.19 51.55 73.2 50.87 72.74"/><circle class="cls-1" cx="85.04" cy="85.2" r="1.39"/><circle class="cls-1" cx="85.04" cy="85.2" r="1.61"/><polygon class="cls-1" points="84.63 86.76 85.5 88.84 86.22 88.54 85.48 86.75 84.63 86.76"/><polygon class="cls-1" points="86.09 86.41 86.83 88.18 87.54 87.88 86.55 85.73 86.09 86.41"/><circle class="cls-1" cx="65.59" cy="38.71" r="1.39"/><circle class="cls-1" cx="65.59" cy="38.71" r="1.61"/><polygon class="cls-1" points="65.99 37.15 65.13 35.06 64.4 35.37 65.14 37.15 65.99 37.15"/><polygon class="cls-1" points="64.53 37.5 63.8 35.73 63.08 36.02 64.07 38.18 64.53 37.5"/><circle class="cls-1" cx="78.53" cy="36.95" r="1.39"/><circle class="cls-1" cx="78.53" cy="36.95" r="1.61"/><polygon class="cls-1" points="79.65 35.8 79.94 33.56 79.16 33.46 78.91 35.38 79.65 35.8"/><polygon class="cls-1" points="78.21 35.37 78.45 33.48 77.68 33.38 77.47 35.73 78.21 35.37"/><circle class="cls-1" cx="72.26" cy="86.96" r="1.39"/><circle class="cls-1" cx="72.26" cy="86.96" r="1.61"/><polygon class="cls-1" points="71.14 88.11 70.85 90.35 71.63 90.45 71.88 88.53 71.14 88.11"/><polygon class="cls-1" points="72.58 88.54 72.34 90.44 73.11 90.53 73.32 88.17 72.58 88.54"/><circle class="cls-1" cx="100.39" cy="65.09" r="1.39"/><circle class="cls-1" cx="100.39" cy="65.09" r="1.61"/><polygon class="cls-1" points="101.53 66.21 103.77 66.5 103.87 65.72 101.96 65.47 101.53 66.21"/><polygon class="cls-1" points="101.96 64.77 103.86 65.02 103.96 64.25 101.6 64.03 101.96 64.77"/><circle class="cls-1" cx="50.4" cy="58.82" r="1.39"/><circle class="cls-1" cx="50.4" cy="58.82" r="1.61"/><polygon class="cls-1" points="49.25 57.7 47.02 57.41 46.92 58.19 48.83 58.44 49.25 57.7"/><polygon class="cls-1" points="48.83 59.14 46.93 58.9 46.83 59.66 49.19 59.88 48.83 59.14"/><circle class="cls-1" cx="95.28" cy="46.49" r="1.39"/><circle class="cls-1" cx="95.28" cy="46.49" r="1.61"/><polygon class="cls-1" points="96.89 46.47 98.67 45.09 98.19 44.47 96.66 45.65 96.89 46.47"/><polygon class="cls-1" points="96.17 45.15 97.69 43.98 97.21 43.37 95.39 44.88 96.17 45.15"/><circle class="cls-1" cx="55.51" cy="77.42" r="1.39"/><circle class="cls-1" cx="55.51" cy="77.42" r="1.61"/><polygon class="cls-1" points="53.9 77.44 52.12 78.82 52.6 79.44 54.13 78.26 53.9 77.44"/><polygon class="cls-1" points="54.62 78.76 53.1 79.93 53.58 80.54 55.4 79.03 54.62 78.76"/><circle class="cls-1" cx="90.85" cy="81.85" r="1.39"/><circle class="cls-1" cx="90.85" cy="81.85" r="1.61"/><polygon class="cls-1" points="90.87 83.46 92.25 85.25 92.87 84.76 91.69 83.23 90.87 83.46"/><polygon class="cls-1" points="92.19 82.74 93.36 84.26 93.97 83.78 92.45 81.97 92.19 82.74"/><circle class="cls-1" cx="59.94" cy="42.06" r="1.39"/><circle class="cls-1" cx="59.94" cy="42.06" r="1.61"/><polygon class="cls-1" points="59.92 40.45 58.54 38.66 57.92 39.15 59.1 40.68 59.92 40.45"/><polygon class="cls-1" points="58.6 41.17 57.43 39.65 56.82 40.13 58.33 41.94 58.6 41.17"/><circle class="cls-1" cx="87.85" cy="40.05" r="1.39"/><circle class="cls-1" cx="87.85" cy="40.05" r="1.61"/><polygon class="cls-1" points="89.33 39.42 90.45 37.46 89.77 37.07 88.81 38.75 89.33 39.42"/><polygon class="cls-1" points="88.16 38.47 89.11 36.81 88.44 36.43 87.34 38.53 88.16 38.47"/><circle class="cls-1" cx="62.94" cy="83.86" r="1.39"/><circle class="cls-1" cx="62.94" cy="83.86" r="1.61"/><polygon class="cls-1" points="61.46 84.49 60.34 86.45 61.02 86.84 61.98 85.16 61.46 84.49"/><polygon class="cls-1" points="62.63 85.44 61.68 87.1 62.35 87.48 63.45 85.38 62.63 85.44"/><circle class="cls-1" cx="97.29" cy="74.42" r="1.39"/><circle class="cls-1" cx="97.29" cy="74.42" r="1.61"/><polygon class="cls-1" points="97.92 75.89 99.88 77.02 100.27 76.34 98.59 75.37 97.92 75.89"/><polygon class="cls-1" points="98.86 74.73 100.52 75.68 100.91 75.01 98.81 73.91 98.86 74.73"/><circle class="cls-1" cx="53.5" cy="49.49" r="1.39"/><circle class="cls-1" cx="53.5" cy="49.49" r="1.61"/><polygon class="cls-1" points="52.87 48.02 50.91 46.89 50.52 47.58 52.2 48.54 52.87 48.02"/><polygon class="cls-1" points="51.93 49.18 50.27 48.23 49.88 48.9 51.98 50 51.93 49.18"/><circle class="cls-1" cx="99.68" cy="55.28" r="1.39"/><circle class="cls-1" cx="99.68" cy="55.28" r="1.61"/><polygon class="cls-1" points="101.17 55.88 103.35 55.29 103.14 54.53 101.28 55.03 101.17 55.88"/><polygon class="cls-1" points="101.02 54.38 102.86 53.88 102.66 53.13 100.4 53.84 101.02 54.38"/><circle class="cls-1" cx="51.11" cy="68.63" r="1.39"/><circle class="cls-1" cx="51.11" cy="68.63" r="1.61"/><polygon class="cls-1" points="49.62 68.03 47.44 68.62 47.64 69.38 49.51 68.88 49.62 68.03"/><polygon class="cls-1" points="49.77 69.53 47.93 70.03 48.13 70.78 50.39 70.07 49.77 69.53"/><circle class="cls-1" cx="82.07" cy="86.26" r="1.39"/><circle class="cls-1" cx="82.07" cy="86.26" r="1.61"/><polygon class="cls-1" points="81.47 87.75 82.06 89.93 82.82 89.72 82.31 87.86 81.47 87.75"/><polygon class="cls-1" points="82.96 87.59 83.46 89.44 84.21 89.24 83.5 86.97 82.96 87.59"/><circle class="cls-1" cx="68.72" cy="37.65" r="1.39"/><circle class="cls-1" cx="68.72" cy="37.65" r="1.61"/><polygon class="cls-1" points="69.32 36.16 68.73 33.98 67.97 34.19 68.47 36.05 69.32 36.16"/><polygon class="cls-1" points="67.83 36.32 67.33 34.47 66.58 34.67 67.29 36.94 67.83 36.32"/><circle class="cls-1" cx="81.72" cy="37.55" r="1.39"/><circle class="cls-1" cx="81.72" cy="37.55" r="1.61"/><polygon class="cls-1" points="82.98 36.55 83.55 34.37 82.79 34.17 82.3 36.04 82.98 36.55"/><polygon class="cls-1" points="81.61 35.95 82.09 34.09 81.34 33.9 80.83 36.21 81.61 35.95"/><circle class="cls-1" cx="69.08" cy="86.34" r="1.39"/><circle class="cls-1" cx="69.08" cy="86.34" r="1.61"/><polygon class="cls-1" points="67.82 87.34 67.25 89.52 68.01 89.72 68.5 87.85 67.82 87.34"/><polygon class="cls-1" points="69.19 87.94 68.71 89.8 69.46 89.99 69.97 87.68 69.19 87.94"/><circle class="cls-1" cx="99.78" cy="68.27" r="1.39"/><circle class="cls-1" cx="99.78" cy="68.27" r="1.61"/><polygon class="cls-1" points="100.78 69.53 102.96 70.1 103.16 69.34 101.29 68.85 100.78 69.53"/><polygon class="cls-1" points="101.39 68.16 103.23 68.64 103.43 67.89 101.12 67.38 101.39 68.16"/><circle class="cls-1" cx="51.02" cy="55.62" r="1.39"/><circle class="cls-1" cx="51.02" cy="55.62" r="1.61"/><polygon class="cls-1" points="50.02 54.36 47.84 53.79 47.64 54.55 49.51 55.04 50.02 54.36"/><polygon class="cls-1" points="49.41 55.74 47.56 55.25 47.37 56 49.68 56.51 49.41 55.74"/><circle class="cls-1" cx="97.11" cy="49.16" r="1.39"/><circle class="cls-1" cx="97.11" cy="49.16" r="1.61"/><polygon class="cls-1" points="98.7 49.35 100.65 48.22 100.25 47.53 98.59 48.51 98.7 49.35"/><polygon class="cls-1" points="98.16 47.95 99.81 46.99 99.42 46.32 97.43 47.59 98.16 47.95"/><circle class="cls-1" cx="53.69" cy="74.73" r="1.39"/><circle class="cls-1" cx="53.69" cy="74.73" r="1.61"/><polygon class="cls-1" points="52.1 74.54 50.15 75.67 50.55 76.36 52.21 75.38 52.1 74.54"/><polygon class="cls-1" points="52.64 75.94 50.98 76.9 51.38 77.57 53.37 76.3 52.64 75.94"/><circle class="cls-1" cx="88.17" cy="83.66" r="1.39"/><circle class="cls-1" cx="88.17" cy="83.66" r="1.61"/><polygon class="cls-1" points="87.98 85.26 89.12 87.21 89.8 86.81 88.83 85.14 87.98 85.26"/><polygon class="cls-1" points="89.39 84.72 90.35 86.37 91.02 85.98 89.75 83.98 89.39 84.72"/><circle class="cls-1" cx="62.63" cy="40.23" r="1.39"/><circle class="cls-1" cx="62.63" cy="40.23" r="1.61"/><polygon class="cls-1" points="62.81 38.63 61.68 36.68 61 37.08 61.97 38.75 62.81 38.63"/><polygon class="cls-1" points="61.41 39.17 60.45 37.52 59.78 37.91 61.05 39.91 61.41 39.17"/><circle class="cls-1" cx="90.57" cy="41.83" r="1.39"/><circle class="cls-1" cx="90.57" cy="41.83" r="1.61"/><polygon class="cls-1" points="92.11 41.39 93.48 39.59 92.85 39.12 91.68 40.65 92.11 41.39"/><polygon class="cls-1" points="91.08 40.3 92.23 38.78 91.62 38.31 90.26 40.25 91.08 40.3"/><circle class="cls-1" cx="60.23" cy="82.06" r="1.39"/><circle class="cls-1" cx="60.23" cy="82.06" r="1.61"/><polygon class="cls-1" points="58.69 82.5 57.32 84.3 57.95 84.78 59.12 83.24 58.69 82.5"/><polygon class="cls-1" points="59.72 83.59 58.56 85.11 59.18 85.58 60.54 83.64 59.72 83.59"/><circle class="cls-1" cx="95.51" cy="77.12" r="1.39"/><circle class="cls-1" cx="95.51" cy="77.12" r="1.61"/><polygon class="cls-1" points="95.94 78.67 97.74 80.03 98.22 79.41 96.68 78.24 95.94 78.67"/><polygon class="cls-1" points="97.03 77.63 98.56 78.79 99.02 78.17 97.08 76.81 97.03 77.63"/><circle class="cls-1" cx="55.29" cy="46.77" r="1.39"/><circle class="cls-1" cx="55.29" cy="46.77" r="1.61"/><polygon class="cls-1" points="54.85 45.22 53.06 43.86 52.58 44.48 54.12 45.65 54.85 45.22"/><polygon class="cls-1" points="53.77 46.26 52.24 45.1 51.77 45.72 53.72 47.08 53.77 46.26"/><circle class="cls-1" cx="100.34" cy="58.45" r="1.39"/><circle class="cls-1" cx="100.34" cy="58.45" r="1.61"/><polygon class="cls-1" points="101.75 59.23 103.98 58.93 103.87 58.15 101.96 58.41 101.75 59.23"/><polygon class="cls-1" points="101.78 57.73 103.68 57.47 103.57 56.7 101.24 57.12 101.78 57.73"/><circle class="cls-1" cx="50.46" cy="65.44" r="1.39"/><circle class="cls-1" cx="50.46" cy="65.44" r="1.61"/><polygon class="cls-1" points="49.05 64.66 46.82 64.96 46.92 65.74 48.84 65.48 49.05 64.66"/><polygon class="cls-1" points="49.02 66.16 47.12 66.42 47.23 67.19 49.56 66.77 49.02 66.16"/><circle class="cls-1" cx="78.89" cy="86.9" r="1.39"/><circle class="cls-1" cx="78.89" cy="86.9" r="1.61"/><polygon class="cls-1" points="78.11 88.31 78.42 90.54 79.19 90.44 78.93 88.52 78.11 88.31"/><polygon class="cls-1" points="79.61 88.34 79.87 90.24 80.64 90.13 80.23 87.8 79.61 88.34"/><circle class="cls-1" cx="71.91" cy="36.99" r="1.39"/><circle class="cls-1" cx="71.91" cy="36.99" r="1.61"/><polygon class="cls-1" points="72.69 35.59 72.39 33.35 71.61 33.45 71.87 35.37 72.69 35.59"/><polygon class="cls-1" points="71.19 35.55 70.93 33.65 70.16 33.76 70.57 36.09 71.19 35.55"/><rect class="cls-1" x="73.84" y="25.76" width="2.85" height="1.29"/><path class="cls-1" d="M75.22,25.9a2.22,2.22,0,0,1,1.45.64c.09-1.85-.11-3.68.64-4.17a3.23,3.23,0,0,1-2.08.79Z"/><path class="cls-1" d="M75.31,25.9a2.26,2.26,0,0,0-1.45.64c-.1-1.79.14-3.64-.63-4.17a3.21,3.21,0,0,0,2.08.79Z"/><rect class="cls-1" x="71.58" y="16.01" width="7.28" height="7.28"/><rect class="cls-1" x="73.36" y="96.01" width="2.85" height="1.29"/><path class="cls-1" d="M74.83,97.17a2.23,2.23,0,0,1-1.45-.65c-.08,1.85.12,3.68-.63,4.18a3.15,3.15,0,0,1,2.07-.8Z"/><path class="cls-1" d="M74.74,97.17a2.28,2.28,0,0,0,1.45-.65c.1,1.79-.14,3.64.63,4.18a3.15,3.15,0,0,0-2.07-.8Z"/><rect class="cls-1" x="71.19" y="99.77" width="7.28" height="7.28"/><rect class="cls-1" x="99.54" y="35.71" width="1.29" height="2.85" transform="translate(3.5 82.61) rotate(-45.53)"/><path class="cls-1" d="M100.5,36.74a2.23,2.23,0,0,1,.59,1.48c1.36-1.26,2.5-2.71,3.37-2.54a3.23,3.23,0,0,1-2-.88Z"/><path class="cls-1" d="M100.57,36.81a2.24,2.24,0,0,0-1.49-.56c1.19-1.35,2.65-2.5,2.48-3.42a3.21,3.21,0,0,0,.92,2Z"/><rect class="cls-1" x="101.23" y="28.65" width="7.28" height="7.28" transform="translate(8.36 84.5) rotate(-45.53)"/><rect class="cls-1" x="49.97" y="85.5" width="1.29" height="2.85" transform="translate(-46.88 62.15) rotate(-45.53)"/><path class="cls-1" d="M50.29,87.33a2.3,2.3,0,0,1-.58-1.48c-1.36,1.26-2.5,2.71-3.37,2.53a3.24,3.24,0,0,1,2,.89Z"/><path class="cls-1" d="M50.23,87.26a2.17,2.17,0,0,0,1.49.55c-1.19,1.35-2.65,2.51-2.48,3.43a3.18,3.18,0,0,0-.92-2Z"/><rect class="cls-1" x="42.28" y="88.14" width="7.28" height="7.28" transform="translate(-51.74 60.25) rotate(-45.53)"/><rect class="cls-1" x="109.89" y="60.33" width="1.29" height="2.85" transform="translate(-0.62 1.12) rotate(-0.58)"/><path class="cls-1" d="M111,61.7a2.25,2.25,0,0,1-.63,1.46c1.85.06,3.68-.15,4.18.59a3.23,3.23,0,0,1-.82-2.07Z"/><path class="cls-1" d="M111,61.79a2.2,2.2,0,0,0-.66-1.44c1.79-.12,3.64.1,4.17-.67a3.15,3.15,0,0,0-.78,2.08Z"/><rect class="cls-1" x="113.64" y="57.99" width="7.28" height="7.28" transform="translate(-0.62 1.19) rotate(-0.58)"/><rect class="cls-1" x="39.63" y="60.55" width="1.29" height="2.85" transform="translate(-0.62 0.41) rotate(-0.58)"/><path class="cls-1" d="M39.77,62a2.2,2.2,0,0,1,.63-1.46c-1.85-.06-3.68.16-4.18-.59A3.23,3.23,0,0,1,37,62.05Z"/><path class="cls-1" d="M39.77,61.94a2.2,2.2,0,0,0,.66,1.44c-1.79.12-3.65-.1-4.17.67A3.25,3.25,0,0,0,37,62Z"/><rect class="cls-1" x="29.89" y="58.45" width="7.28" height="7.28" transform="translate(-0.63 0.34) rotate(-0.58)"/><rect class="cls-1" x="99.11" y="85.8" width="2.85" height="1.29" transform="translate(-31.46 98.96) rotate(-46.11)"/><path class="cls-1" d="M100.94,86.77a2.21,2.21,0,0,1-1.48.59c1.28,1.35,2.74,2.47,2.58,3.35a3.19,3.19,0,0,1,.86-2Z"/><path class="cls-1" d="M100.87,86.83a2.21,2.21,0,0,0,.54-1.49c1.37,1.17,2.54,2.62,3.45,2.44a3.2,3.2,0,0,0-2,.94Z"/><rect class="cls-1" x="101.79" y="87.45" width="7.28" height="7.28" transform="translate(-33.31 103.91) rotate(-46.11)"/><rect class="cls-1" x="48.82" y="36.74" width="2.85" height="1.29" transform="translate(-11.53 47.68) rotate(-46.11)"/><path class="cls-1" d="M49.85,37.07a2.26,2.26,0,0,1,1.48-.6c-1.28-1.34-2.74-2.47-2.58-3.35a3.19,3.19,0,0,1-.86,2.05Z"/><path class="cls-1" d="M49.92,37a2.21,2.21,0,0,0-.54,1.5c-1.37-1.18-2.54-2.63-3.45-2.45a3.15,3.15,0,0,0,2-.94Z"/><rect class="cls-1" x="41.71" y="29.1" width="7.28" height="7.28" transform="translate(-9.69 42.72) rotate(-46.11)"/></svg>