<?xml version="1.0" encoding="utf-8"?>
<!-- Generator: Adobe Illustrator 19.0.0, SVG Export Plug-In . SVG Version: 6.00 Build 0)  -->
<svg version="1.1" id="layer" xmlns="http://www.w3.org/2000/svg" xmlns:xlink="http://www.w3.org/1999/xlink" x="0px" y="0px"
	 viewBox="-153 -46 652 652" style="enable-background:new -153 -46 652 652;" xml:space="preserve">
<style type="text/css">
	.st0{fill:#343a40;}
</style>
<path class="st0" d="M-126.5,181.9h600v196.7h-600V181.9z"/>
<path d="M4,248.2c7.2,5.6,9.7,15.4,6,23.7c-3.3-6.5-16.5-12-25.3-13.9C-8.7,255.6-1.2,252.7,4,248.2z M-50.5,309.6
	c-7.2-5.6-9.7-15.4-6-23.7c3.3,6.5,16.5,12,25.3,13.9C-37.8,302.2-45.4,305-50.5,309.6z M-52.6,314.1l0.2-0.2l0.2-0.2
	c-0.2,0-0.3-0.2-0.5-0.3c-5.8-5.3-9.6-11.9-9.1-19.8c2.2-38.2,54.5-34.7,66-51.1c-8.1-4.4-16.7-7.8-25.6-10.1
	c-6.2,3.4-12.6,5.3-18.9,8.1c-38.2,16.2-48.7,49-12.4,73.4C-52.9,313.9-52.7,314.1-52.6,314.1z M6.4,243.9l-0.3-0.3l-0.2,0.2
	l-0.2,0.2c0.1,0,0.2,0.1,0.2,0.2c0.2,0,0.3,0.2,0.5,0.3c5.5,5.2,9.6,11.9,9.1,19.8c-2.8,38.3-54.5,34.6-66,51.1
	c8.1,4.4,16.7,7.8,25.6,10.1c6.2-3.4,12.6-5.3,18.9-8.1C32.2,301.2,42.7,268.3,6.4,243.9z M103.7,266.3c-0.3-5.7-4.6-15.1-19.8-15.1
	H57.6v0.9c0.7,13.1,0.9,44.9,0.2,54.3v0.9h14.6v-0.9c-0.2-5-0.3-11.9-0.5-18.9h11c6.3,0.3,12.3-2.2,16.5-6.9
	C103,276.9,103.9,271.1,103.7,266.3z M78.9,277.8h-7.2v-16.7c2.7-0.2,5.5-0.3,8.3-0.2c6.4,0.3,9.3,3.4,9.3,7.7
	C89.3,271.8,88.2,277.4,78.9,277.8z M139.1,264.4l-0.7-0.2c-1-0.2-2.1-0.3-3.1-0.2c-5.6-0.2-10.9,2.2-14.4,6.5l0.2-4.8v-0.9h-13.2
	v0.9c0.9,16.5,0.5,27.3,0.3,37.7v3.8h13.8v-0.9l-0.2-5c-0.4-5.9-0.4-11.8,0.2-17.7c0.7-4.6,3.4-8.4,9.8-8.4c1.5-0.1,3,0.1,4.5,0.3
	l1.2,0.3L139.1,264.4z M189.5,284.7c-0.7-13.2-9.8-20.6-25.4-20.6c-8.3,0-15.3,2.6-19.6,7.2c-4,4.1-5.5,9.5-5.5,15.8
	c0,9.8,7.4,21.1,25.6,21.1c8.4,0,15-2.4,19.3-6.9c4-4.4,6-10.2,5.7-16.2 M153,287.4c-0.4-3.8,0.7-7.6,3.1-10.7
	c2.2-2.1,5.2-3.2,8.3-2.9c3.3,0,10.7,1.2,11,11.5c0.4,3.7-0.7,7.4-3.1,10.3c-2.1,2.1-5,3.1-7.9,2.9
	C156.3,298.6,153.2,292.6,153,287.4 M265.6,275.9c-0.3-7.4-6.2-11.9-15.5-11.9c-6.5,0-11.5,2.2-14.4,6.5c-2.4-4.3-7.2-6.5-13.6-6.5
	c-5.2,0.1-10.1,2.5-13.4,6.5l0.2-4.6v-0.9h-13.4v0.9c0.5,15.3,0.2,35.9,0,40.6v0.9h14.3v-0.9c-0.2-4.6-0.7-17.5,0.2-23
	c0.5-4,2.4-8.4,8.3-8.4c3.8,0,5.7,2.1,5.8,6.4c0.3,6,0.2,12.2,0,18.1c0,2.4-0.2,4.8-0.2,7.2v0.9H238V306c-0.2-4.5-0.5-18.2,0.2-22.9
	c0.3-2.9,2.1-8.1,8.3-8.1c4,0,5.8,1.9,6,6c0.2,2.8,0,19.4-0.3,25.4v0.9h14.1v-0.9c-0.3-9.8-0.2-19.4,0-25.3
	C265.8,279.5,265.6,277.7,265.6,275.9 M295.9,264c-9.8,0-15.1,2.4-19.3,6.7c-4,4.6-6.1,10.7-5.7,16.8c0.1,4.6,1.7,9,4.6,12.6
	c4.5,5.3,12.4,8.1,22.5,8.1c5-0.1,9.9-0.8,14.8-1.9l0.5-0.2v-0.5l1.5-8.1l0.2-1.4l-1.2,0.3c-4.9,1.4-9.9,2.1-15,2.2
	c-7.9,0-13.6-2.6-13.9-9.3v-0.3h32.8v-5.8c0-11-7.2-19.4-22.9-19.4 M304.5,281.2h-19.3c0.3-5.1,4.6-9,9.7-8.8c0,0,0.1,0,0.1,0
	C300.5,272.5,304.5,275.2,304.5,281.2 M357.5,302.5c0,0,1,6.5-2.4,10c-2.9,2.8-8.3,2.9-11.5,2.9c-4.5-0.1-9-0.7-13.4-1.9l-1.2-0.3
	l-1.5,10.1l0.5,0.2c6.1,1.1,12.3,1.6,18.6,1.7c8.8,0,16.5-2.6,20.1-6.2c3.6-4,4.8-9.8,4.6-15.1c-0.3-14.3-0.5-23.6,0.2-37v-0.7
	l-0.7-0.2c-6.4-1.2-12.9-1.8-19.4-1.9c-10.7,0-17.5,1.9-22.7,7.2c-4.2,4.4-6.3,10.4-5.8,16.5c0.5,11.5,7.7,20.1,20.1,20.1
	C352.3,307.7,355.4,304.6,357.5,302.5L357.5,302.5z M346.8,297.6c-6.5,0-10.1-3.1-10.5-9.5c-0.2-2.4,0-7.2,3.3-10.5
	c2.6-2.8,6.2-4.1,11.5-4.1c2.1,0,4.3,0.2,6.4,0.5v2.9c0,3.8,0,7.9-0.3,11.5C356.4,293.1,353.5,297.6,346.8,297.6 M421.2,306.3
	c-0.3-7.2-0.2-14.3,0-20.3c0.2-4.1,0-5.7,0-8.1c0-7.7-5-14.1-19.9-14.1c-6.4,0-12.7,0.7-18.9,2.1l-0.5,0.2v0.5l-1,7.7l-0.2,1.4
	l1.4-0.5c5.4-2.1,11.2-3.2,17-3.3c6,0,8.1,1.5,8.1,4c0,3.6-5.8,3.8-13.6,5.3c-8.8,1.9-17.7,4.6-17.2,14.8c0.5,11.2,12,12,17,12
	s11.7-1.4,14.3-5.2c0,1.1,0,2.2-0.2,3.3v0.9h13.8L421.2,306.3z M407.7,293.1c-1.5,6.2-8.9,6.5-11,6.5c-3.1,0-6-0.9-6.4-4.1
	c-0.3-3.3,2.4-5.5,8.4-6.5c3.1-0.4,6.1-1.3,8.9-2.4V293.1z"/>
</svg>
