<?xml version="1.0" encoding="utf-8"?>
<!-- Generator: Adobe Illustrator 19.0.0, SVG Export Plug-In . SVG Version: 6.00 Build 0)  -->
<svg version="1.1" id="layer" xmlns="http://www.w3.org/2000/svg" xmlns:xlink="http://www.w3.org/1999/xlink" x="0px" y="0px"
	 viewBox="-153 -46 652 652" style="enable-background:new -153 -46 652 652;" xml:space="preserve">
<style type="text/css">
	.st0{fill:none;stroke:#000000;stroke-width:0.2682;stroke-miterlimit:3.864;}
	.st1{fill:#FFFFFF;}
	.st2{fill:#F5822B;}
</style>
<path d="M-115.3,219.1c-6.6-19.5-16.5-43.5,0.7-53.6c4.3-2.5,11.4-2,19.2,0.8c38.8,14.2,70.3,63.5,74.4,70.9c0,0,3.2,0.3,4.8-0.7
	c2.1-1.2,1.7-3.3,3.1-5.3c1.6-2.4,2.4-4,4.6-5.8c1.1-0.9,2.2-0.7,3-1.8c7-8.6,18.3-21.1,36.6-32.4c0,0,5.3-4.8,7.1-2.1
	c0.7,1.1-1,2.5-2.4,2.5c-2.7,0.1-3.4,0.7-5.5,1.6c-1.5,0.6-2.5,1.4-3.5,2.1c-12.2,8.5-19.1,13.6-25.3,21.8c-2.1,2.7-1.1,1.5-1.8,2.4
	c-1.1,1.4-3.1,4.2-2.5,3.9c5.6-3,16.3-9.5,27.5-13.7c8.4-3.1,14.2-5.5,22-6.4c1.6-0.2,4.8-0.7,3.5,1.7c-0.4,0.7-1.1,0.5-1.8,0.5
	c-1.7,0.2-2.7-0.5-4.4-0.5c-3.5,0.1-5.3,1.3-8.7,2.3c-6.8,2.1-10.7,3.3-17.1,6.2C10.3,217.3-1,224.9-1,224.9c0-0.3,3.1,4,4.3,7
	c1.2,3.1,1.5,5,1.7,8.2c0,0.4,2.7,2.1,6.7,5.1c2.2,1.8,3.4,2.9,5.3,5c1.9,2.1,3,3.2,4.3,5.7c1,1.8,1.8,2.9,1.8,4.9
	c0,2-0.2,3.3-1.5,4.8c-0.9,1.1-1.6,1.6-3,2.1c-1.7,0.5-2.9,0.7-4.6,0.1c-1.6-0.5-2.6-0.9-3.6-2.2c-0.8-1-1.2-1.8-1.3-3.1
	c0-1.5,0.4-2.4,1.4-3.5c0.8-0.9,1.6-1.4,2.8-1.5c0.8,0,1.2,0.3,2,0.5c1.1,0.4,1.7,1,2.2,2.1c0.3,0.7,0.5,1.2,0.3,1.9
	c-0.2,0.4-0.2,0.9-0.7,0.9c-0.7,0-0.4-1-0.8-1.5c-0.5-0.7-0.8-1.3-1.6-1.7c-0.8-0.4-1.4-0.4-2.2-0.2c-0.9,0.2-1.4,0.8-1.7,1.6
	c-0.3,0.9,0,1.5,0.3,2.4c0.3,0.9,0.8,1.4,1.6,2c0.9,0.6,1.5,0.8,2.6,1c0.9,0.2,1.5,0.2,2.4-0.1c1.5-0.4,2.2-1.2,2.9-2.6
	c0.5-1,0.7-4,0.7-2.8c0,0.8-0.3-1.3-0.6-2.1c-0.6-2-1.4-3-2.8-4.5c-1.2-1.5-1.9-2.3-3.2-3.6c-3.9-4-6.4-6.1-11.1-9.1
	c-2.2-0.1-3.4-0.3-5.6-0.9c-2.8-0.7-4.4-1.2-6.9-2.6l0.5,3.5l0.8,4l-2.3,0.9l-1.8-5.2l-2.1-1.3c-0.8,0-1.3,0.2-2.1,0.3
	c-1.1,0.1-0.8,1.8-1.3,4.5l-0.2,8.2l0,6c-2.5-0.4-3.9-0.8-6.5-1.3c-2-0.4-3.1-0.7-5.1-1.2c-1.2-0.3-2.3-0.8-3.1-0.7
	c-1.3,0.2-2.3,1.8-2.3,3.3c0,0.9,0.4,1.3,0.6,2.1c0.8,2.9,2.5,4.1,3.7,6.8c0.7,1.7,2.1,2.6,1.7,4.4c-0.3,1.4-1.3,1.8-2.3,2.8
	c-1,0.9-1.5,1.5-2.7,2c-0.9,0.4-1.6,0.3-2.3,0.9c-1.1,0.8-1,1.9-1.8,3c-1.2,1.8-2.4,2.5-4.1,3.9c-1.1,0.8-1.8,1.1-3,1.8
	c-1.6,0.9-2.8,1-4.4,2c-2.5,1.6-2.7,3.8-4.9,5.6c-2.1,1.7-3.5,2.3-5.8,3.5c-1.8,0.9-2.8,1.5-4.6,2.3c-1.5,0.7-2.2,1.7-3.9,1.6
	c-0.9,0-1.5,0.1-2.3-0.5c-1.4-1.1,0-4.1,0.4-4.7c1.2-1.6,1.7-3.8,3.3-5.9c1.1-1.4,1.6-2.4,3.1-3.4c1.5-1.1,2.7-1.2,4.4-2
	c1.8-0.9,2.8-1.3,4.6-2.3c1.9-1,3-1.7,4.8-2.9c1.9-1.2,3-1.9,4.7-3.4c1.7-1.4,2.7-2.2,4.1-3.9c1.3-1.6,2.3-2.4,3.2-4.3
	c0.9-1.8,1.3-2.1,1.8-4.9c0,0-2.4,3-3.9,4.9c-2.5,3.1-3.8,5-6.9,7.5c-2.8,2.4-4.8,3.1-8,4.9c-2.3,1.3-3.7,2-6.1,3
	c-2.6,1.1-4.1,1.4-6.8,2.3c-1.8,0.6-2.8,1-4.7,1.5c-2.7,0.7-4.2,1-7,1c-1.9,0-3.1,0-5-0.4c-1.4-0.3-2-1-3.4-1.2
	c-1.5-0.1-2.3,0.5-3.7,0.5c-2.1,0-3.3-0.2-5.3-0.9c-1.8-0.6-2.7-1.3-4.2-2.4c-1.6-1.2-1.8-2.6-3.5-3.6c-1.3-0.8-2.1-1-3.5-1.7
	c-1.7-0.8-2.6-1.3-4.2-2.4c-1.7-1.2-2.7-2.1-3.8-3.8c-1.2-1.9-0.9-3.5-2.1-5.4c-1.1-1.7-2.4-2.1-3.5-3.9c-1.4-2.2-1.5-3.8-2.2-6.2
	c-1.2-4.1-1.7-6.6-1.8-10.9c-0.1-4.4,0.3-6.9,1.3-11.1c1.3-5.5,2.5-8.7,5.9-13.1C-117.3,221.1-115.3,219.1-115.3,219.1"/>
<path class="st0" d="M-115.3,219.1c-6.6-19.5-16.5-43.5,0.7-53.6c4.3-2.5,11.4-2,19.2,0.8c38.8,14.2,70.3,63.5,74.4,70.9
	c0,0,3.2,0.3,4.8-0.7c2.1-1.2,1.7-3.3,3.1-5.3c1.6-2.4,2.4-4,4.6-5.8c1.1-0.9,2.2-0.7,3-1.8c7-8.6,18.3-21.1,36.6-32.4
	c0,0,5.3-4.8,7.1-2.1c0.7,1.1-1,2.5-2.4,2.5c-2.7,0.1-3.4,0.7-5.5,1.6c-1.5,0.6-2.5,1.4-3.5,2.1c-12.2,8.5-19.1,13.6-25.3,21.8
	c-2.1,2.7-1.1,1.5-1.8,2.4c-1.1,1.4-3.1,4.2-2.5,3.9c5.6-3,16.3-9.5,27.5-13.7c8.4-3.1,14.2-5.5,22-6.4c1.6-0.2,4.8-0.7,3.5,1.7
	c-0.4,0.7-1.1,0.5-1.8,0.5c-1.7,0.2-2.7-0.5-4.4-0.5c-3.5,0.1-5.3,1.3-8.7,2.3c-6.8,2.1-10.7,3.3-17.1,6.2
	C10.3,217.3-1,224.9-1,224.9c0-0.3,3.1,4,4.3,7c1.2,3.1,1.5,5,1.7,8.2c0,0.4,2.7,2.1,6.7,5.1c2.2,1.8,3.4,2.9,5.3,5
	c1.9,2.1,3,3.2,4.3,5.7c1,1.8,1.8,2.9,1.8,4.9c0,2-0.2,3.3-1.5,4.8c-0.9,1.1-1.6,1.6-3,2.1c-1.7,0.5-2.9,0.7-4.6,0.1
	c-1.6-0.5-2.6-0.9-3.6-2.2c-0.8-1-1.2-1.8-1.3-3.1c0-1.5,0.4-2.4,1.4-3.5c0.8-0.9,1.6-1.4,2.8-1.5c0.8,0,1.2,0.3,2,0.5
	c1.1,0.4,1.7,1,2.2,2.1c0.3,0.7,0.5,1.2,0.3,1.9c-0.2,0.4-0.2,0.9-0.7,0.9c-0.7,0-0.4-1-0.8-1.5c-0.5-0.7-0.8-1.3-1.6-1.7
	c-0.8-0.4-1.4-0.4-2.2-0.2c-0.9,0.2-1.4,0.8-1.7,1.6c-0.3,0.9,0,1.5,0.3,2.4c0.3,0.9,0.8,1.4,1.6,2c0.9,0.6,1.5,0.8,2.6,1
	c0.9,0.2,1.5,0.2,2.4-0.1c1.5-0.4,2.2-1.2,2.9-2.6c0.5-1,0.7-4,0.7-2.8c0,0.8-0.3-1.3-0.6-2.1c-0.6-2-1.4-3-2.8-4.5
	c-1.2-1.5-1.9-2.3-3.2-3.6c-3.9-4-6.4-6.1-11.1-9.1c-2.2-0.1-3.4-0.3-5.6-0.9c-2.8-0.7-4.4-1.2-6.9-2.6l0.5,3.5l0.8,4l-2.3,0.9
	l-1.8-5.2l-2.1-1.3c-0.8,0-1.3,0.2-2.1,0.3c-1.1,0.1-0.8,1.8-1.3,4.5l-0.2,8.2l0,6c-2.5-0.4-3.9-0.8-6.5-1.3c-2-0.4-3.1-0.7-5.1-1.2
	c-1.2-0.3-2.3-0.8-3.1-0.7c-1.3,0.2-2.3,1.8-2.3,3.3c0,0.9,0.4,1.3,0.6,2.1c0.8,2.9,2.5,4.1,3.7,6.8c0.7,1.7,2.1,2.6,1.7,4.4
	c-0.3,1.4-1.3,1.8-2.3,2.8c-1,0.9-1.5,1.5-2.7,2c-0.9,0.4-1.6,0.3-2.3,0.9c-1.1,0.8-1,1.9-1.8,3c-1.2,1.8-2.4,2.5-4.1,3.9
	c-1.1,0.8-1.8,1.1-3,1.8c-1.6,0.9-2.8,1-4.4,2c-2.5,1.6-2.7,3.8-4.9,5.6c-2.1,1.7-3.5,2.3-5.8,3.5c-1.8,0.9-2.8,1.5-4.6,2.3
	c-1.5,0.7-2.2,1.7-3.9,1.6c-0.9,0-1.5,0.1-2.3-0.5c-1.4-1.1,0-4.1,0.4-4.7c1.2-1.6,1.7-3.8,3.3-5.9c1.1-1.4,1.6-2.4,3.1-3.4
	c1.5-1.1,2.7-1.2,4.4-2c1.8-0.9,2.8-1.3,4.6-2.3c1.9-1,3-1.7,4.8-2.9c1.9-1.2,3-1.9,4.7-3.4c1.7-1.4,2.7-2.2,4.1-3.9
	c1.3-1.6,2.3-2.4,3.2-4.3c0.9-1.8,1.3-2.1,1.8-4.9c0,0-2.4,3-3.9,4.9c-2.5,3.1-3.8,5-6.9,7.5c-2.8,2.4-4.8,3.1-8,4.9
	c-2.3,1.3-3.7,2-6.1,3c-2.6,1.1-4.1,1.4-6.8,2.3c-1.8,0.6-2.8,1-4.7,1.5c-2.7,0.7-4.2,1-7,1c-1.9,0-3.1,0-5-0.4
	c-1.4-0.3-2-1-3.4-1.2c-1.5-0.1-2.3,0.5-3.7,0.5c-2.1,0-3.3-0.2-5.3-0.9c-1.8-0.6-2.7-1.3-4.2-2.4c-1.6-1.2-1.8-2.6-3.5-3.6
	c-1.3-0.8-2.1-1-3.5-1.7c-1.7-0.8-2.6-1.3-4.2-2.4c-1.7-1.2-2.7-2.1-3.8-3.8c-1.2-1.9-0.9-3.5-2.1-5.4c-1.1-1.7-2.4-2.1-3.5-3.9
	c-1.4-2.2-1.5-3.8-2.2-6.2c-1.2-4.1-1.7-6.6-1.8-10.9c-0.1-4.4,0.3-6.9,1.3-11.1c1.3-5.5,2.5-8.7,5.9-13.1
	C-117.3,221.1-115.3,219.1-115.3,219.1z"/>
<path class="st1" d="M-3.1,229.3c1.4,2.5-0.3,5.8-1.3,6.2c-1.1,0.4-1.8,0.6-2.7,0.1c-0.9-0.5-1.3-1.2-1.4-2.3
	c-0.1-0.9,0-1.4,0.2-2.2c0.3-1.1,0.5-1.8,1.3-2.6c0.6-0.6,1-1.1,1.8-1.1C-4.2,227.4-3.7,228.2-3.1,229.3"/>
<path class="st0" d="M-3.1,229.3c1.4,2.5-0.3,5.8-1.3,6.2c-1.1,0.4-1.8,0.6-2.7,0.1c-0.9-0.5-1.3-1.2-1.4-2.3
	c-0.1-0.9,0-1.4,0.2-2.2c0.3-1.1,0.5-1.8,1.3-2.6c0.6-0.6,1-1.1,1.8-1.1C-4.2,227.4-3.7,228.2-3.1,229.3z"/>
<path d="M-8.5,248.8l2.1,3.5c0.9-1.4,1.6-2.1,2.8-3.1c1.7-1.4,2.7-2.2,4.8-2.9c0.1,2.6,0,4-0.2,6.6c-0.2,4.3-1.3,6.6-1.5,10.8
	c-0.1,1.7-0.2,2.7,0.1,4.4c0.2,1.4,0.6,2.1,1,3.4c0.6,1.6,0.5,2.7,1.4,4.2c0.4,0.7,0.5,1.7,1.3,1.7c1.1,0-0.2-1.6-0.4-2.7
	c-0.6-3.6-1.8-5.6-1.9-9.3c-0.1-4.1,1.2-6.3,1.8-10.3c0.5-3.2,1.5-4.9,1.3-8.1c-0.1-1.2,0.5-2.2-0.4-2.9c-0.6-0.5-3.9,0-6.2,0.9
	c-1.5,0.6-2.2,1-3.6,1.9C-6.9,247.5-7.5,248-8.5,248.8"/>
<path class="st0" d="M-8.5,248.8l2.1,3.5c0.9-1.4,1.6-2.1,2.8-3.1c1.7-1.4,2.7-2.2,4.8-2.9c0.1,2.6,0,4-0.2,6.6
	c-0.2,4.3-1.3,6.6-1.5,10.8c-0.1,1.7-0.2,2.7,0.1,4.4c0.2,1.4,0.6,2.1,1,3.4c0.6,1.6,0.5,2.7,1.4,4.2c0.4,0.7,0.5,1.7,1.3,1.7
	c1.1,0-0.2-1.6-0.4-2.7c-0.6-3.6-1.8-5.6-1.9-9.3c-0.1-4.1,1.2-6.3,1.8-10.3c0.5-3.2,1.5-4.9,1.3-8.1c-0.1-1.2,0.5-2.2-0.4-2.9
	c-0.6-0.5-3.9,0-6.2,0.9c-1.5,0.6-2.2,1-3.6,1.9C-6.9,247.5-7.5,248-8.5,248.8z"/>
<path d="M-15.3,257.2c0-1-0.3,1.6,0.1,2.4c0.4,0.8,0.9,1.3,1.8,1.4c0.7,0.1,1.3,0,1.8-0.5c0.6-0.6,0.4-1.4,0.5-2.3
	c0.1-1.1,0.1-7.4-0.2-5.4c0,0.3,1.3,3.4,5.9,9c1.3,1.6,1.4,6.4,1.9,9.3c0.3,2.2,0.5,5.1,0.8,5.6c0.7,1.3,1.5,0.9,1.5,1.2
	c0.2,0.5-0.3-4.3-1.1-7.5c-0.3-1.2,0-6.1-0.5-7.3c-0.8-1.9-2.3-3.8-3.6-6.3c-1.8-3.3-3-5.1-4.5-8.6c-0.8-2-1.1-2.3-1.8-5.2
	c-0.2-0.7-0.8-0.8-1.5-0.9c-0.8-0.1-0.6,1.2-0.8,2c-0.3,1.4,0,2.2,0,3.6C-15,251.3-15.3,260.9-15.3,257.2"/>
<path class="st0" d="M-15.3,257.2c0-1-0.3,1.6,0.1,2.4c0.4,0.8,0.9,1.3,1.8,1.4c0.7,0.1,1.3,0,1.8-0.5c0.6-0.6,0.4-1.4,0.5-2.3
	c0.1-1.1,0.1-7.4-0.2-5.4c0,0.3,1.3,3.4,5.9,9c1.3,1.6,1.4,6.4,1.9,9.3c0.3,2.2,0.5,5.1,0.8,5.6c0.7,1.3,1.5,0.9,1.5,1.2
	c0.2,0.5-0.3-4.3-1.1-7.5c-0.3-1.2,0-6.1-0.5-7.3c-0.8-1.9-2.3-3.8-3.6-6.3c-1.8-3.3-3-5.1-4.5-8.6c-0.8-2-1.1-2.3-1.8-5.2
	c-0.2-0.7-0.8-0.8-1.5-0.9c-0.8-0.1-0.6,1.2-0.8,2c-0.3,1.4,0,2.2,0,3.6C-15,251.3-15.3,260.9-15.3,257.2z"/>
<polygon points="-15.8,261.3 -14.8,262.5 -14.8,264.2 -16.4,264.9 -21.6,262.9 -25.3,261.8 -28.4,260.9 -26.9,265.9 -24.1,272.3 
	-21,278.4 -15.6,280.4 -10.3,282.7 -10.1,284.3 -22.8,279.5 -26.7,271 -30.7,263.7 -32.4,259.6 -31.6,257.8 -29.8,258.4 
	-25.6,259.2 -19.4,260.5 "/>
<polygon class="st0" points="-15.8,261.3 -14.8,262.5 -14.8,264.2 -16.4,264.9 -21.6,262.9 -25.3,261.8 -28.4,260.9 -26.9,265.9 
	-24.1,272.3 -21,278.4 -15.6,280.4 -10.3,282.7 -10.1,284.3 -22.8,279.5 -26.7,271 -30.7,263.7 -32.4,259.6 -31.6,257.8 
	-29.8,258.4 -25.6,259.2 -19.4,260.5 "/>
<path d="M-25.8,264.1l2,4.4c0.7,0.1,1.2,0,1.9-0.3c0.9-0.4,1.5-0.9,1.6-1.9c0.1-0.5,0-0.9-0.2-1.3l-3.4-1.2L-25.8,264.1z"/>
<path class="st0" d="M-25.8,264.1l2,4.4c0.7,0.1,1.2,0,1.9-0.3c0.9-0.4,1.5-0.9,1.6-1.9c0.1-0.5,0-0.9-0.2-1.3l-3.4-1.2L-25.8,264.1
	z"/>
<path class="st1" d="M-26.5,255.2c-0.3,0.3,3.2-0.8,4.6-2.3c0.9-0.9,1.1-1.7,1.5-2.9c2.2-7-7.2-19.3-15.5-30.8
	c-5.7-7.9-9.9-11.7-16.8-18.7c-3.7-3.7-5.9-5.8-9.8-9.3c-4.5-4-7.3-6.3-11.9-9.9c-1.3-1-2.8-2.2-4-1.1c-0.7,0.7,0.6,2.1-0.3,2.6
	c-1,0.6-4.4-2.8-5.4-1.7c-1.4,1.6,0.9,3.8,1.7,4.4c0.3,0.2-2.1-0.4-3.4-0.6c-1-0.2-1.5-0.5-2.5-0.5c-1.9,0-1.9,2.5-0.6,3.4
	c3.3,2.3,1.1,1.1,2.7,2.1c4.2,2.4,5,2.8,8.9,3.1c0.5,0,0.9-0.2,1-0.7c0.4-2.8-3.5-3.9-3.4-4.4c0.4-1.3,2.2,0.9,3.6,0.6
	c0.5-0.1,1.2-0.1,1.3-0.5c1-2.9-2.9-3.8-1.7-4.1c1.6-0.5,13.5,10.4,17.8,15.8c1.1,1.3-2.6,0.8-4.2,0.9c-1.3,0.1-2.3-0.7-3.2,0.2
	c-1.1,1,0.5,2.3,0.5,3.7c0,0.5,0.4,0.9,0.2,1.3c-0.4,0.9-1.5-0.1-2.5-0.2c-1-0.1-1.8-0.8-2.4,0.1c-0.7,0.9,1.7,4.1,2,4.6
	c1.3,1.9-5.4,0.4-5.1,2.6c0.2,1.3,1.8,1.2,2.2,2.4c0.3,0.7,0.8,1.1,0.5,1.8c-0.3,0.8-3.2,0.4-2.1,0.8c5.2,2.3,4.4,1.8,7,1.2
	c0.6-0.2,0.3-1,0.3-1.7c0-1.4-3.5-2-2.3-2.7c1-0.5,1.7,0.7,2.8,0.7c1.3,0,2.6,0.4,3.2-0.7c0.5-0.9,0-1.7-0.4-2.7
	c-0.3-1-1.8-1.1-1.7-2.2c0.2-1.7,3.6,1.3,4.4,0.2c0.5-0.7-1.7-3.6-1.4-4.2c0.7-1.2,2.8,1.7,4.2,0.8c1.3-0.9-1.3-5,0-4.1
	c4.9,3.7,5.5,4.9,8.8,8.3c1.7,1.8,2.8,2.7,4.5,4.6c2.9,3.2,4.7,4.9,7.4,8.2c2.2,2.8,3.4,4.5,5.4,7.4c1.7,2.5,2.8,3.8,4.2,6.5
	c2.2,4.2,4.2,7.7,3.8,11.5C-22.7,252-24.6,253-26.5,255.2"/>
<path class="st0" d="M-26.5,255.2c-0.3,0.3,3.2-0.8,4.6-2.3c0.9-0.9,1.1-1.7,1.5-2.9c2.2-7-7.2-19.3-15.5-30.8
	c-5.7-7.9-9.9-11.7-16.8-18.7c-3.7-3.7-5.9-5.8-9.8-9.3c-4.5-4-7.3-6.3-11.9-9.9c-1.3-1-2.8-2.2-4-1.1c-0.7,0.7,0.6,2.1-0.3,2.6
	c-1,0.6-4.4-2.8-5.4-1.7c-1.4,1.6,0.9,3.8,1.7,4.4c0.3,0.2-2.1-0.4-3.4-0.6c-1-0.2-1.5-0.5-2.5-0.5c-1.9,0-1.9,2.5-0.6,3.4
	c3.3,2.3,1.1,1.1,2.7,2.1c4.2,2.4,5,2.8,8.9,3.1c0.5,0,0.9-0.2,1-0.7c0.4-2.8-3.5-3.9-3.4-4.4c0.4-1.3,2.2,0.9,3.6,0.6
	c0.5-0.1,1.2-0.1,1.3-0.5c1-2.9-2.9-3.8-1.7-4.1c1.6-0.5,13.5,10.4,17.8,15.8c1.1,1.3-2.6,0.8-4.2,0.9c-1.3,0.1-2.3-0.7-3.2,0.2
	c-1.1,1,0.5,2.3,0.5,3.7c0,0.5,0.4,0.9,0.2,1.3c-0.4,0.9-1.5-0.1-2.5-0.2c-1-0.1-1.8-0.8-2.4,0.1c-0.7,0.9,1.7,4.1,2,4.6
	c1.3,1.9-5.4,0.4-5.1,2.6c0.2,1.3,1.8,1.2,2.2,2.4c0.3,0.7,0.8,1.1,0.5,1.8c-0.3,0.8-3.2,0.4-2.1,0.8c5.2,2.3,4.4,1.8,7,1.2
	c0.6-0.2,0.3-1,0.3-1.7c0-1.4-3.5-2-2.3-2.7c1-0.5,1.7,0.7,2.8,0.7c1.3,0,2.6,0.4,3.2-0.7c0.5-0.9,0-1.7-0.4-2.7
	c-0.3-1-1.8-1.1-1.7-2.2c0.2-1.7,3.6,1.3,4.4,0.2c0.5-0.7-1.7-3.6-1.4-4.2c0.7-1.2,2.8,1.7,4.2,0.8c1.3-0.9-1.3-5,0-4.1
	c4.9,3.7,5.5,4.9,8.8,8.3c1.7,1.8,2.8,2.7,4.5,4.6c2.9,3.2,4.7,4.9,7.4,8.2c2.2,2.8,3.4,4.5,5.4,7.4c1.7,2.5,2.8,3.8,4.2,6.5
	c2.2,4.2,4.2,7.7,3.8,11.5C-22.7,252-24.6,253-26.5,255.2z"/>
<path class="st1" d="M-89.7,199.1c-1.3,0.1-2.4-0.3-3.2,0.7c-0.9,1.1-0.5,2.5,0.3,3.8c0.6,1,1.4,1.3,2.4,1.8
	c1.3,0.7,2.2,0.7,3.7,0.8c1.6,0.2,2.7,0.7,4.1,0c0.7-0.4,1.2-0.8,1.4-1.6c0.2-0.9-0.4-1.5-0.9-2.3c-0.8-1.2-1.7-1.4-3-2
	C-86.7,199.6-87.8,199-89.7,199.1"/>
<path class="st0" d="M-89.7,199.1c-1.3,0.1-2.4-0.3-3.2,0.7c-0.9,1.1-0.5,2.5,0.3,3.8c0.6,1,1.4,1.3,2.4,1.8
	c1.3,0.7,2.2,0.7,3.7,0.8c1.6,0.2,2.7,0.7,4.1,0c0.7-0.4,1.2-0.8,1.4-1.6c0.2-0.9-0.4-1.5-0.9-2.3c-0.8-1.2-1.7-1.4-3-2
	C-86.7,199.6-87.8,199-89.7,199.1z"/>
<path class="st1" d="M-87.1,190.8c-1-0.4-4.9-0.1-5.5,1.3c-0.4,1,0.1,1.7,0.6,2.6c0.9,1.6,2.1,1.9,3.7,2.8c1.6,0.9,2.7,1.3,4.6,1.5
	c1.5,0.2,2.4,0.5,3.8,0c0.8-0.3,1.6-0.3,2-1.1c0.6-1.2-0.7-2-1.5-3.1c-1.3-1.7-2.6-2-4.5-2.9C-85.1,191.5-85.1,191.7-87.1,190.8"/>
<path class="st0" d="M-87.1,190.8c-1-0.4-4.9-0.1-5.5,1.3c-0.4,1,0.1,1.7,0.6,2.6c0.9,1.6,2.1,1.9,3.7,2.8c1.6,0.9,2.7,1.3,4.6,1.5
	c1.5,0.2,2.4,0.5,3.8,0c0.8-0.3,1.6-0.3,2-1.1c0.6-1.2-0.7-2-1.5-3.1c-1.3-1.7-2.6-2-4.5-2.9C-85.1,191.5-85.1,191.7-87.1,190.8z"/>
<path class="st1" d="M-90.5,207.4c-1.1,0.3-1.9,0.5-2.5,1.4c-0.9,1.4-1.3,2.9-0.2,4.1c1,1.1,2.2,0.5,3.7,0.9
	c3.1,0.7,5.7,1.4,6.4,0.7c0.6-0.5,1.2-0.8,1.4-1.6c0.2-0.9-0.4-1.5-0.9-2.3c-0.7-1.2-1.7-1.4-3-2C-87.4,207.8-88.6,206.9-90.5,207.4
	"/>
<path class="st0" d="M-90.5,207.4c-1.1,0.3-1.9,0.5-2.5,1.4c-0.9,1.4-1.3,2.9-0.2,4.1c1,1.1,2.2,0.5,3.7,0.9
	c3.1,0.7,5.7,1.4,6.4,0.7c0.6-0.5,1.2-0.8,1.4-1.6c0.2-0.9-0.4-1.5-0.9-2.3c-0.7-1.2-1.7-1.4-3-2C-87.4,207.8-88.6,206.9-90.5,207.4
	z"/>
<path class="st1" d="M-70.5,192.1l3-0.1c0,0,0.6,2.1,0.9,3.4c0.1,0.6,0.6,1,0.3,1.6c-0.4,0.7-1.1,0.6-1.8,0.8
	c-1.2,0.3-3.2,0.2-3.2,0.2s2,1.7,2.2,3.3c0.1,0.6,0.4,1.4,0.1,1.6c-1.7,1.3-5.9,0.6-5.9,0.6s1.6,1.6,2.1,3c0.4,1.1,0.4,1.8,0.4,2.9
	c-0.8,0.4-1.2,0.6-2.1,0.8c-1.1,0.3-1.8,0.4-2.9,0.4c0.8,0.8,1.4,1.2,1.9,2.2c0.7,1.1,1.1,1.8,1.3,3.1c-0.6,0.7-1.7,1.2-2,1.1
	c-2.2-0.8-3.5-0.9-4.6-1.5c0,0,2.2-0.8,2.4-2c0.3-1.2-0.9-1.7-1.2-2.8c-0.3-1-0.8-1.7-0.4-2.7c0.2-0.5,0.7-0.4,1.2-0.7
	c0.7-0.5,1.9-1.1,1.9-1.1l-0.7-3.2c-0.2-1-1.2-2-0.4-2.7c0.6-0.4,1.5,0.1,1.9,0c0.5,0,0.8,0,1.3-0.2c0.7-0.3-0.1-1-0.3-1.9
	c-0.2-1.1-1.1-2.3-0.1-3c0.5-0.4,1-0.4,1.6-0.2c3.1,0.7,3.2-0.4,3.2-0.4L-70.5,192.1z"/>
<path class="st0" d="M-70.5,192.1l3-0.1c0,0,0.6,2.1,0.9,3.4c0.1,0.6,0.6,1,0.3,1.6c-0.4,0.7-1.1,0.6-1.8,0.8
	c-1.2,0.3-3.2,0.2-3.2,0.2s2,1.7,2.2,3.3c0.1,0.6,0.4,1.4,0.1,1.6c-1.7,1.3-5.9,0.6-5.9,0.6s1.6,1.6,2.1,3c0.4,1.1,0.4,1.8,0.4,2.9
	c-0.8,0.4-1.2,0.6-2.1,0.8c-1.1,0.3-1.8,0.4-2.9,0.4c0.8,0.8,1.4,1.2,1.9,2.2c0.7,1.1,1.1,1.8,1.3,3.1c-0.6,0.7-1.7,1.2-2,1.1
	c-2.2-0.8-3.5-0.9-4.6-1.5c0,0,2.2-0.8,2.4-2c0.3-1.2-0.9-1.7-1.2-2.8c-0.3-1-0.8-1.7-0.4-2.7c0.2-0.5,0.7-0.4,1.2-0.7
	c0.7-0.5,1.9-1.1,1.9-1.1l-0.7-3.2c-0.2-1-1.2-2-0.4-2.7c0.6-0.4,1.5,0.1,1.9,0c0.5,0,0.8,0,1.3-0.2c0.7-0.3-0.1-1-0.3-1.9
	c-0.2-1.1-1.1-2.3-0.1-3c0.5-0.4,1-0.4,1.6-0.2c3.1,0.7,3.2-0.4,3.2-0.4L-70.5,192.1z"/>
<path class="st1" d="M-37.3,236.5c0.1-1,0.3-1.6,1-2.3c0.9-0.9,1.8-1.3,3.1-1.3c1,0,1.8-0.2,2.5,0.5c0.7,0.6,1,1.1,1.1,2
	c0.1,1-0.2,1.7-0.7,2.6c-0.7,1.2-1.6,1.4-2.9,1.8l-2.3-1.6L-37.3,236.5z"/>
<path class="st0" d="M-37.3,236.5c0.1-1,0.3-1.6,1-2.3c0.9-0.9,1.8-1.3,3.1-1.3c1,0,1.8-0.2,2.5,0.5c0.7,0.6,1,1.1,1.1,2
	c0.1,1-0.2,1.7-0.7,2.6c-0.7,1.2-1.6,1.4-2.9,1.8l-2.3-1.6L-37.3,236.5z"/>
<path class="st1" d="M-54.1,225.5l3,2c0.5-1.2,0.7-1.9,1.5-2.9c1.2-1.6,2.2-2.3,3.9-3.5c0.9-0.6,1.3-1.1,2.2-1.7l-4.1-3.8
	c0.2,1.4-0.1,2.3-0.6,3.6c-0.6,1.5-1.2,2.1-2.3,3.3C-51.7,223.9-52.6,224.4-54.1,225.5"/>
<path class="st0" d="M-54.1,225.5l3,2c0.5-1.2,0.7-1.9,1.5-2.9c1.2-1.6,2.2-2.3,3.9-3.5c0.9-0.6,1.3-1.1,2.2-1.7l-4.1-3.8
	c0.2,1.4-0.1,2.3-0.6,3.6c-0.6,1.5-1.2,2.1-2.3,3.3C-51.7,223.9-52.6,224.4-54.1,225.5z"/>
<path class="st2" d="M-61.2,221.9l5.6,3l0.3-1.4c0.4-1.3,1-1.9,1.8-3c0.9-1.2,1.9-1.5,2.6-2.8c0.6-1.1,0.7-1.9,0.7-3.1
	c0-1-0.3-1.6-0.9-2.3c-0.7-0.9-1.7-0.5-2.8-0.4c-1.3,0.1-1.9,0.7-3.1,1.3c-1.3,0.7-1.8,1.4-2.6,2.6c-0.9,1.3-1,2.2-1.4,3.7
	C-61.2,220.3-61.1,220.9-61.2,221.9"/>
<path class="st2" d="M-48.1,229.3l3.6,2.2l3.6,2.5l0.4-1.1c0.5-0.6,0.8-1,1.4-1.6c0.5-0.5,0.8-0.8,1.5-1c0.6-0.2,1-0.2,1.6,0
	l-0.2-1.6l-1.2-2.6c-0.5-1.1-1.2-1.5-2.2-2.1c-1.1-0.6-1.7-1.2-2.9-1.2c-1.1,0-1.6,0.6-2.6,1.2c-0.9,0.5-1.4,0.8-2,1.6
	c-0.5,0.8-0.5,1.4-0.8,2.3C-47.9,228.4-48,228.7-48.1,229.3"/>
<path class="st1" d="M-98.7,236.1c0-2-2.2-3.8-2.2-4.1c0-0.3,0.5-0.5,0.8-0.4c6,0.9,13.7,1.5,13.6,5.5c0,0.6,0,0.9-0.3,1.4
	c-0.5,0.8-1.1,1-2,1.2c-4.9,1.1-12.5,0.1-12.6-0.5C-101.7,238.5-98.7,238.4-98.7,236.1"/>
<path class="st0" d="M-98.7,236.1c0-2-2.2-3.8-2.2-4.1c0-0.3,0.5-0.5,0.8-0.4c6,0.9,13.7,1.5,13.6,5.5c0,0.6,0,0.9-0.3,1.4
	c-0.5,0.8-1.1,1-2,1.2c-4.9,1.1-12.5,0.1-12.6-0.5C-101.7,238.5-98.7,238.4-98.7,236.1z"/>
<path class="st1" d="M-103.7,241.2l7.2,0.6c2.5,0.5,7.6-0.1,7.6,3.8c0,2.9-4,3.1-5.6,3.1c-7.4-0.1-7.5,0.4-9.2-0.1
	c-0.4-0.1,3.2-1.5,3.1-3.4C-100.7,242.9-103.4,242-103.7,241.2"/>
<path class="st0" d="M-103.7,241.2l7.2,0.6c2.5,0.5,7.6-0.1,7.6,3.8c0,2.9-4,3.1-5.6,3.1c-7.4-0.1-7.5,0.4-9.2-0.1
	c-0.4-0.1,3.2-1.5,3.1-3.4C-100.7,242.9-103.4,242-103.7,241.2z"/>
<path class="st1" d="M-104.6,250.9c0,0,6.4-0.9,10-0.6c3,0.3,5.9,0.9,6.3,2.9c0.6,3.1-5,4.2-7.5,4.9c-2.7,0.1-6.9,0.7-6.9,0.7
	s2.7-2.3,1.8-4.3C-101.1,252-104.6,250.9-104.6,250.9"/>
<path class="st0" d="M-104.6,250.9c0,0,6.4-0.9,10-0.6c3,0.3,5.9,0.9,6.3,2.9c0.6,3.1-5,4.2-7.5,4.9c-2.7,0.1-6.9,0.7-6.9,0.7
	s2.7-2.3,1.8-4.3C-101.1,252-104.6,250.9-104.6,250.9z"/>
<path class="st1" d="M-100.3,261.5c0,0,7.5-3.2,13.3-2.3c5.4,0.8,6.8,1.4,7.2,4.1c0.4,3.2-5.2,6.3-8.7,7c-3.3,0.9-6.6,1.3-6.6,1.3
	s2.2-2.6,1.2-6C-94.5,262.5-100.3,261.5-100.3,261.5"/>
<path class="st0" d="M-100.3,261.5c0,0,7.5-3.2,13.3-2.3c5.4,0.8,6.8,1.4,7.2,4.1c0.4,3.2-5.2,6.3-8.7,7c-3.3,0.9-6.6,1.3-6.6,1.3
	s2.2-2.6,1.2-6C-94.5,262.5-100.3,261.5-100.3,261.5z"/>
<path class="st1" d="M-90.2,273.1c0.2-0.4,3.1-1.7,6.7-2.2c2.2-0.3,7.6-2.2,8.9,0.5c2.1,4.1-9.5,9.8-10.4,9.4
	c-0.7-0.3,1.6-1.9,0.1-4.9C-86.5,272.9-90.6,273.9-90.2,273.1"/>
<path class="st0" d="M-90.2,273.1c0.2-0.4,3.1-1.7,6.7-2.2c2.2-0.3,7.6-2.2,8.9,0.5c2.1,4.1-9.5,9.8-10.4,9.4
	c-0.7-0.3,1.6-1.9,0.1-4.9C-86.5,272.9-90.6,273.9-90.2,273.1z"/>
<path class="st1" d="M-90.1,225.6c0,0,0.8,1.8,0.4,2.9c-0.6,1.7-2.1,2.7-2.1,2.7s5.2,1.9,8.7,2.6c2.8,0.6,5.3,0.8,6.3-1
	c0.5-1-1.2-2.7-2.9-3.8C-81.4,227.9-90.1,225.6-90.1,225.6"/>
<path class="st0" d="M-90.1,225.6c0,0,0.8,1.8,0.4,2.9c-0.6,1.7-2.1,2.7-2.1,2.7s5.2,1.9,8.7,2.6c2.8,0.6,5.3,0.8,6.3-1
	c0.5-1-1.2-2.7-2.9-3.8C-81.4,227.9-90.1,225.6-90.1,225.6z"/>
<path class="st1" d="M-72.8,232.1c5.4,1.4,8.1,2.4,12.1,4.7c1.4,0.8,1.7,3.3,1.3,4.1c-0.5,0.8-2.5,0-3.4-0.2
	c-5.2-1.3-7.5-3-11.4-4.4c-0.7-0.3-1.5-1.8-1.1-3C-75,232.2-73.6,231.9-72.8,232.1"/>
<path class="st0" d="M-72.8,232.1c5.4,1.4,8.1,2.4,12.1,4.7c1.4,0.8,1.7,3.3,1.3,4.1c-0.5,0.8-2.5,0-3.4-0.2
	c-5.2-1.3-7.5-3-11.4-4.4c-0.7-0.3-1.5-1.8-1.1-3C-75,232.2-73.6,231.9-72.8,232.1z"/>
<path class="st1" d="M-71.6,240c-1-1.2-4.3-2.2-7.3-2.7c-1.8-0.3-3.5-0.5-4.5-0.3c-1.1,0.2-1.9,1.9-1.1,2.8c1.3,1.6,3.3,1.7,5.5,2.4
	c2.5,0.7,5.9,1.2,6.6,1C-71.7,242.8-70.1,241.8-71.6,240"/>
<path class="st0" d="M-71.6,240c-1-1.2-4.3-2.2-7.3-2.7c-1.8-0.3-3.5-0.5-4.5-0.3c-1.1,0.2-1.9,1.9-1.1,2.8c1.3,1.6,3.3,1.7,5.5,2.4
	c2.5,0.7,5.9,1.2,6.6,1C-71.7,242.8-70.1,241.8-71.6,240z"/>
<path class="st1" d="M-74.3,245.1c-1.1-1.1-4.2-1.7-7.1-1.8c-1.8-0.1-3.7,0-4.7,0.3c-1.1,0.3-2,2.4-1.1,3.2c1.5,1.4,3.5,1.9,6,2.3
	c2.5,0.3,5.9-0.2,6.5-0.6C-73.9,247.7-73,246.3-74.3,245.1"/>
<path class="st0" d="M-74.3,245.1c-1.1-1.1-4.2-1.7-7.1-1.8c-1.8-0.1-3.7,0-4.7,0.3c-1.1,0.3-2,2.4-1.1,3.2c1.5,1.4,3.5,1.9,6,2.3
	c2.5,0.3,5.9-0.2,6.5-0.6C-73.9,247.7-73,246.3-74.3,245.1z"/>
<path class="st1" d="M-74.4,252c-1.1-1.1-3.6-1.4-6.1-1.5c-1.8-0.1-3.7,0-4.7,0.3c-1.1,0.3-2,2.4-1.1,3.2c1.5,1.4,3.5,2.1,6,2.3
	c2.4,0.2,5.5-0.7,6.1-1.1C-73.4,254.4-73.1,253.2-74.4,252"/>
<path class="st0" d="M-74.4,252c-1.1-1.1-3.6-1.4-6.1-1.5c-1.8-0.1-3.7,0-4.7,0.3c-1.1,0.3-2,2.4-1.1,3.2c1.5,1.4,3.5,2.1,6,2.3
	c2.4,0.2,5.5-0.7,6.1-1.1C-73.4,254.4-73.1,253.2-74.4,252z"/>
<path class="st1" d="M-71.7,257.3c-1.6-0.5-5,0.2-6,1.1c-0.7,0.7-1.3,1.5-1.1,3.1c0.1,0.7,1,1.7,1.7,2.1c2.1,1.3,5,0.8,6.6-0.8
	c0.3-0.3-1.5-1.1-1.8-2.1C-72.9,259-71.1,257.5-71.7,257.3"/>
<path class="st0" d="M-71.7,257.3c-1.6-0.5-5,0.2-6,1.1c-0.7,0.7-1.3,1.5-1.1,3.1c0.1,0.7,1,1.7,1.7,2.1c2.1,1.3,5,0.8,6.6-0.8
	c0.3-0.3-1.5-1.1-1.8-2.1C-72.9,259-71.1,257.5-71.7,257.3z"/>
<path class="st1" d="M-69,266.9c-1.6-0.2-5.2-0.1-4.3,4c0.1,0.7,0.8,1.7,1.5,1.9c2.3,0.9,3.5,0.5,4.8-1.3c0.2-0.3-1.6-0.8-2.1-1.8
	C-70,268-68.4,267-69,266.9"/>
<path class="st0" d="M-69,266.9c-1.6-0.2-5.2-0.1-4.3,4c0.1,0.7,0.8,1.7,1.5,1.9c2.3,0.9,3.5,0.5,4.8-1.3c0.2-0.3-1.6-0.8-2.1-1.8
	C-70,268-68.4,267-69,266.9z"/>
<path class="st1" d="M-68.6,275.4c0,0,1.3-1.4,2.4-1.3c2.6,0.3,2.1,0.7,2.8,1.8c0.8,1.3,1.1,3.2,0.7,3.9l-1.8,1.1
	c-1.3,0.9-2.8-0.2-3.8-1.7C-69.2,277.7-69.1,276-68.6,275.4"/>
<path class="st0" d="M-68.6,275.4c0,0,1.3-1.4,2.4-1.3c2.6,0.3,2.1,0.7,2.8,1.8c0.8,1.3,1.1,3.2,0.7,3.9l-1.8,1.1
	c-1.3,0.9-2.8-0.2-3.8-1.7C-69.2,277.7-69.1,276-68.6,275.4z"/>
<path class="st1" d="M-48,258.5c0,0,3.4-1.8,3.7-4.5c0.3-2.9-1.3-5.4-4.1-6.2c-3.1-0.9-6.7,0.5-7.4,3.6c-0.5,2.2,1.6,5.6,1.6,5.6
	l-2.1,1.8c0.1,0.7,3.2,1.6,3.2,1.6s-2.6,2.3-2.3,4.1c0.4,2.3,5.3,2.7,5.3,2.7s-2.1,2.5-2,3.5c0.3,2,3.2,1,5.1,0.4
	c2.1-0.8,5.4-2.8,3.8-4.3c-0.9-0.9-3.1-0.7-3.1-0.7s1.6-5.2,1.5-3.6C-44.7,264.5-48,258.5-48,258.5"/>
<path class="st0" d="M-48,258.5c0,0,3.4-1.8,3.7-4.5c0.3-2.9-1.3-5.4-4.1-6.2c-3.1-0.9-6.7,0.5-7.4,3.6c-0.5,2.2,1.6,5.6,1.6,5.6
	l-2.1,1.8c0.1,0.7,3.2,1.6,3.2,1.6s-2.6,2.3-2.3,4.1c0.4,2.3,5.3,2.7,5.3,2.7s-2.1,2.5-2,3.5c0.3,2,3.2,1,5.1,0.4
	c2.1-0.8,5.4-2.8,3.8-4.3c-0.9-0.9-3.1-0.7-3.1-0.7s1.6-5.2,1.5-3.6C-44.7,264.5-48,258.5-48,258.5z"/>
<path class="st1" d="M-35,254.7c0.5-0.3-0.5-6.2-3.2-6.5c-1.8-0.2-2.3,0.4-2.7,2.2c-0.3,1.1,3.5,5.2,5.2,5
	C-35.3,255.3-35.3,255-35,254.7"/>
<path class="st0" d="M-35,254.7c0.5-0.3-0.5-6.2-3.2-6.5c-1.8-0.2-2.3,0.4-2.7,2.2c-0.3,1.1,3.5,5.2,5.2,5
	C-35.3,255.3-35.3,255-35,254.7z"/>
<path class="st1" d="M-37.5,258.1c0.3-1.2-0.8-2.3-2-2.5c-1.3-0.2-2.8,0.2-2.9,1.5c-0.1,1.1,1,1.7,2,1.9
	C-39.2,259.3-37.8,259.2-37.5,258.1"/>
<path class="st0" d="M-37.5,258.1c0.3-1.2-0.8-2.3-2-2.5c-1.3-0.2-2.8,0.2-2.9,1.5c-0.1,1.1,1,1.7,2,1.9
	C-39.2,259.3-37.8,259.2-37.5,258.1z"/>
<path class="st1" d="M-37.3,260.3c0,2-0.7,3.9-2.2,4.9c-1.4,1-4-0.9-3.1-3.4c0.3-0.7,1.7,0.2,2.4-0.1
	C-39.6,261.5-37.3,260-37.3,260.3"/>
<path class="st0" d="M-37.3,260.3c0,2-0.7,3.9-2.2,4.9c-1.4,1-4-0.9-3.1-3.4c0.3-0.7,1.7,0.2,2.4-0.1
	C-39.6,261.5-37.3,260-37.3,260.3z"/>
<path class="st1" d="M-64.8,232.9c-4.7-3.2-1.7-5.5,2.3-3.9c3.6,1.5,8.5,4,8.9,4.9c0.4,0.9-2.4,1.9-5.7,1.5
	C-60.6,234.9-62.9,234.2-64.8,232.9"/>
<path class="st0" d="M-64.8,232.9c-4.7-3.2-1.7-5.5,2.3-3.9c3.6,1.5,8.5,4,8.9,4.9c0.4,0.9-2.4,1.9-5.7,1.5
	C-60.6,234.9-62.9,234.2-64.8,232.9z"/>
<path class="st2" d="M-92.1,226.2c-1.7-1.6-7.8-3.9-13.5-4.5c-8.9-0.9-16.7,5.6-8.1,6.5c5.2,0.5,12.3,1.1,17.6,1.9
	C-92.6,230.5-89.5,228.6-92.1,226.2"/>
<path class="st2" d="M-101.8,233.8c-1.8-1.5-2.9-2.2-9.1-3.2c-11.2-1.9-14.2,7.7-7.1,8.4c5.2,0.5,6.9-0.2,12.2-0.4
	C-102.3,238.5-99.2,236.1-101.8,233.8"/>
<path class="st2" d="M-104.1,243.4c-1.5-1.6-1.3-1.7-7.4-2.5c-12.2-1.6-14.3,7.2-7.9,8.5c5.2,1.1,6.7,0.8,11.8-0.4
	C-104.3,248.2-102.5,245.1-104.1,243.4"/>
<path class="st2" d="M-107,252c-3.2-0.8-5.8-0.4-8-0.4c-10.9-0.1-8,9-2.8,9.9c4.6,0.8,6.5,0.1,11.3-2.1
	C-103.5,258.1-102.7,253.1-107,252"/>
<path class="st2" d="M-99.3,263.7c-3.3-1-5.9-0.8-8.1-0.9c-11.2-0.2-8.2,10.2-2.9,11.3c4.7,0.9,6.4,0.8,11.3-1.6
	C-95.9,271.1-95.4,264.9-99.3,263.7"/>
<path class="st2" d="M-89.3,275.4c-2.7-0.6-4.7-0.4-6.5-0.3c-8.9,0.3-6.1,8.4-1.8,9c3.8,0.5,5.2,0.4,9-1.7
	C-86.3,281.1-86.1,276.2-89.3,275.4"/>
<path class="st2" d="M-71.8,277.5c-1.4-1.1-3.5,0.8-5.6,1.7c-3.1,1.4-7.5,3.2-6.9,5.5c0.6,2.2,5.5,2,8.3,1c2.2-0.7,4.6-0.8,5.8-1.8
	C-68.6,282.7-70.1,278.9-71.8,277.5"/>
<path class="st2" d="M-54.9,246.9c-3.3-2.1-4.9-3.3-9.1-3.9c-1.9-0.3-6.3,1.8-7.6,5c-1.3,3.2,1.5,6.9,2.8,7c3.5,0.3,7.5,0.3,10,0.2
	c0.7,0-1.8-2.9-0.9-5.2C-58.7,247.2-57.2,247-54.9,246.9"/>
<path class="st2" d="M-57.6,260.9c-4.6,0.4-7.3,1.7-9.7,1.8c-2.5,0.1-2.6-4.6-1-5c3.4-0.9,7.3-0.7,10.2-0.1c0.4,0.1-1.6,1-1.1,1.5
	C-59.2,259.1-57.7,260.4-57.6,260.9"/>
<path class="st2" d="M-55.3,267.7c-3.5,3-6.5,2.9-8.9,2.6c-2.8-0.3-1.9-4.3-0.5-5.3c3-1.9,4-2,7.1-1.9c0.4,0-1.1,1.9-0.8,3.1
	C-58,267.5-55.9,267.2-55.3,267.7"/>
<path class="st2" d="M-51.5,273.9c-3.6,2.8-5.1,3-7.5,3c-2.3,0-2.9-3.2-1.2-4.7c1.6-1.4,2.5-1.6,5.7-2.4c0.4-0.1-0.8,2.1-0.2,3.1
	C-54,274-52.1,273.5-51.5,273.9"/>
<path class="st2" d="M-41.5,268.9c0,0-5.8,4.4-9.7,6.8c-4.8,3-12.8,7.1-12.8,7.1s9.2-2.4,14.1-5.8
	C-46.1,274.4-41.5,268.9-41.5,268.9"/>
<path class="st2" d="M-40.8,245.3c0.3-1.4-0.2-2.2-0.9-3.5c-0.9-1.6-2-2.1-3.6-3.2c-1.4-1-2.1-1.9-3.8-2.2c-1.3-0.3-2.1-0.6-3.4-0.1
	c-1.4,0.5-2.2,1.4-2.6,2.9c-0.4,1.6,0.5,2.5,1.3,3.9c0.9,1.6,2.1,2.1,3.7,3.1c1.3,0.8,3.6,1.5,3.6,1.5s2.1,0.6,3.4,0.1
	C-41.9,247.4-41.1,246.6-40.8,245.3"/>
<path class="st2" d="M-97.8,212.7c-0.1-1.5-13.7,0.1-15.1,1c-1.8,1.1-1.6,4.2,0.9,3.2c3.9-1.6,10.1-3.1,13.8-3.8
	C-97.9,212.9-97.8,213-97.8,212.7"/>
<path class="st2" d="M-109.9,168.1c-0.6,1.3,3.3,2.1,4.7,2.3c5.8,0.8,7.5,1.4,12.1,2.9c3.2,1,4.9,1.8,8.1,3c2.1,0.8,4.5,2.6,5.5,2
	c0.6-0.4-0.4-1-1-1.5c-3.7-2.8-4.8-2.8-8-4.3c-3-1.4-4.7-2.3-7.8-3.3c-2.3-0.7-3.6-1.4-6-1.6C-105.3,167.3-108.6,165.5-109.9,168.1"
	/>
<path class="st2" d="M-109.2,171.6c-2.7-0.1-4.4-0.3-7,0.4c-1.1,0.3-2,0.2-2.6,1.2c-1,1.6-0.2,4.1,3,3.9c6.2-0.3,8.5,0.4,12.5,1.3
	c4.1,0.9,6.4,2.5,10.8,2.9c1.9,0.1,4.4,0.4,4.9,0.1c1-0.4-2.2-3.6-4.2-4.6c-2.6-1.3-3.1-1.7-5.3-2.5c-1.8-0.7-2.9-1-4.9-1.5
	C-104.7,172-106.3,171.7-109.2,171.6"/>
<path class="st2" d="M-119,179.2c4-0.3,5.7-0.6,9.2-0.2c3.3,0.3,5.2,0.8,8.4,1.8c2.3,0.7,3.9,0.7,5.8,2.2c1.4,1.1,3.2,3.1,3.2,3.4
	c0.2,1.2-1.3,1.3-2,1.4c-1.6,0.2-1.2,0-1.9,0c-3.3,0-5.2-0.5-8.6-0.7c-2.6-0.2-4.2-0.2-6.6-0.4c-3.6-0.3-7.8-0.9-8.1-1.3
	c-1.3-1.7-2-1.4-2-2.7c0-1.1,0.2-1.9,1-2.6C-120,179.5-119.7,179.3-119,179.2"/>
<path class="st2" d="M-121.6,189.7c-0.2,1.1,0.5,1.7,1.2,2.6c1.5,1.7,3.9,1.1,5.7,1.4c2.8,0.4,3.9,0.3,6.3,0.5
	c2.5,0.2,3.9,0.4,6.3,0.5c2.7,0.1,5,0.9,6.8,0.1c0.9-0.4,0.1-2.2-0.6-2.6c-2.7-1.5-2.4-1.8-3.9-2.2c-2.6-0.6-3.2-0.5-5-0.9
	c-2.3-0.5-6.4-0.9-10.5-1c-1.5,0-2.4-0.5-3.8,0C-120.2,188.3-121.4,188.5-121.6,189.7"/>
<path class="st2" d="M-119.5,198.9c0.1,1.2,0.5,2.4,1.7,2.5c1.4,0.1,3.2,0.9,5.3,1.2c5.2,0.7,10.9,0.1,13.3-0.2
	c0.5-0.1,3.4-1,3.6-1.6c0.4-1.1-1.1-2.2-1.7-2.5c-1.8-0.8-1.4-0.5-2.3-0.8c-3.1-0.9-4.9-1.1-8.1-1.6c-3.6-0.5-6.1-0.5-9.4-0.6
	C-118.7,195.3-119.6,197.2-119.5,198.9"/>
<path class="st2" d="M-117.2,207.4c0,1.5,1,3.2,2.1,3.3c1.3,0.1-0.7,0,3.3,0.4c4.9,0.4,8.1,0.2,10.4-0.1c0.5-0.1,5.3-1.1,5.5-1.6
	c0.4-1.1,0.3-1.4,0-2.2c-0.5-1.2-1.7-1.6-3-1.8c-3.1-0.4-6.2-0.9-10.2-1c-2-0.1-2.1,0.3-5.2,0.2C-116,204.5-117.2,205.8-117.2,207.4
	"/>
<path class="st2" d="M-31.8,241.3c-0.1,0.3,3.2,2.4,4.3,4.6c1.1,2.3,0.8,6.5,1,6.4c2.8-1.3,3.4-5,1.3-9.1
	C-26.9,239.7-31.2,239.2-31.8,241.3"/>
<path class="st1" d="M-93.1,222c4.2-1.2,6.9-2,11.2-1.6c3.6,0.3,5.6,1.1,9.1,2.3c4.2,1.4,6.5,2.6,10.5,4.5c4.1,2,6.1,3.5,10.1,5.7
	c2.9,1.7,4.7,2.4,7.4,4.4c3,2.2,5,3.3,7.2,6.4c1.1,1.6,1.8,2.5,2.5,4.3c0.6,1.5,0.7,2.4,1.4,3.9c0.6,1.2,0.4,2.8,1.8,3
	c0.8,0.1,1.4,0.2,2.1-0.3c0.8-0.5,1.3-1.1,1.3-2.1c0.2-3.7-2-7.1-5-10.5c-1.5-1.6-2.6-2.2-4.3-3.5c-3.7-2.8-6-4.1-9.9-6.5
	c-4.1-2.6-6.6-4-11-6.1c-4.9-2.4-7.8-3.6-13-5.3c-8-2.6-4-0.8-21-4.8l-9.4,2C-99.3,220.4-93.1,222-93.1,222"/>
<path class="st0" d="M-93.1,222c4.2-1.2,6.9-2,11.2-1.6c3.6,0.3,5.6,1.1,9.1,2.3c4.2,1.4,6.5,2.6,10.5,4.5c4.1,2,6.1,3.5,10.1,5.7
	c2.9,1.7,4.7,2.4,7.4,4.4c3,2.2,5,3.3,7.2,6.4c1.1,1.6,1.8,2.5,2.5,4.3c0.6,1.5,0.7,2.4,1.4,3.9c0.6,1.2,0.4,2.8,1.8,3
	c0.8,0.1,1.4,0.2,2.1-0.3c0.8-0.5,1.3-1.1,1.3-2.1c0.2-3.7-2-7.1-5-10.5c-1.5-1.6-2.6-2.2-4.3-3.5c-3.7-2.8-6-4.1-9.9-6.5
	c-4.1-2.6-6.6-4-11-6.1c-4.9-2.4-7.8-3.6-13-5.3c-8-2.6-4-0.8-21-4.8l-9.4,2C-99.3,220.4-93.1,222-93.1,222z"/>
<path class="st2" d="M-68.9,226.3c-1.7-1.6-7.4-5.2-14.3-6.9c-5.2-1.2-8.3-2-14-2.4c-8.2-0.6-18.6,2.3-7.6,3.4
	c5.2,0.5,10.4,1.4,16.8,3.1c6.2,1.6,11.1,4.3,15.6,5.3C-68.9,229.6-66.3,228.7-68.9,226.3"/>
<path d="M51.6,230.5c3.9,9.5,7.8,19,11.7,28.6h0.2l3.8-18.4c0.5-2.7,0.8-4.6,1-6.3c0.1-1.7-0.6-1.9-2.1-2.1l-1.8-0.2l0.2-1.5h10.8
	l-0.2,1.5l-1.4,0.2c-1.4,0.2-2.2,0.6-2.7,2.2c-0.5,1.7-1.1,3.6-1.6,6.3l-5.1,25.1h-3c-4.2-10.3-8.4-20.7-12.7-31h-0.1l-4.3,20.9
	c-0.5,2.7-0.8,4.6-1,6.3c-0.1,1.6,0.6,2,2.1,2.2l1.8,0.2l-0.2,1.5H36l0.2-1.5l1.4-0.2c1.4-0.2,2.2-0.6,2.7-2.2
	c0.5-1.7,1.1-3.6,1.6-6.3l4.3-20.9c0.4-1.7,0-2.3-1-2.4l-2.7-0.3l0.3-1.5H51.6z M80.3,230.5L80,232l2.7,0.2c1.1,0.1,1.4,0.7,1,2.4
	l-5.5,26.9c-0.4,1.7-0.8,2.3-1.9,2.4l-2.6,0.3l-0.3,1.5h23.9l2.3-9h-1.4c-2.3,6.3-4.4,7.2-10,7.2c-2.2,0-4.5-0.2-5.1-0.7
	c-0.7-0.6-0.7-1.4-0.2-3.8l2.3-11.2h6c4,0,4.2,1.1,4,4.4h1.4l2.1-10.6h-1.4c-1.2,3.5-1.7,4.3-5.7,4.3h-6l2.6-12.7
	c0.2-1.2,0.5-1.5,1.3-1.5h5.5c5.8,0,5.6,2.1,5.2,6.7h1.4l1.7-8.5H80.3z M107.1,230.5l-0.3,1.5l2,0.3c1,0.1,1.2,0.6,1.3,2.1l2,31.4
	h3.2l12.6-28.1h0.2l2.4,28.1h3.2l8-18.2c2.6-5.8,4.9-10.9,5.7-12.5c1.3-2.4,1.6-2.8,4.4-3.1l0.2-1.5h-10.3l-0.2,1.5l3,0.4
	c0.7,0.1,0.8,0.7,0.4,1.7c-0.7,2-2.4,6.2-5.2,12.7l-5.5,12.8h-0.2l-2.3-28.1h-3.2l-12.4,28.1H116l-1.5-25.6c-0.1-1.2,0.2-1.6,1-1.6
	l3-0.3l0.3-1.5H107.1z M167.9,230.5l-0.3,1.5l2.7,0.2c1.1,0.1,1.4,0.7,1,2.4l-5.5,26.9c-0.4,1.7-0.8,2.3-1.9,2.4l-2.6,0.3l-0.3,1.5
	h23.9l2.3-9H186c-2.3,6.3-4.4,7.2-10,7.2c-2.2,0-4.5-0.2-5.1-0.7c-0.7-0.6-0.7-1.4-0.2-3.8l2.3-11.2h6c4,0,4.2,1.1,4,4.4h1.4
	l2.1-10.6h-1.4c-1.2,3.5-1.7,4.3-5.7,4.3h-6l2.6-12.7c0.2-1.2,0.5-1.5,1.3-1.5h5.5c5.8,0,5.6,2.1,5.2,6.7h1.4l1.7-8.5H167.9z
	 M197.2,230.5l-0.3,1.5l2.7,0.3c1,0.1,1.4,0.8,1,2.4l-4.3,20.9c-0.6,2.7-1.1,4.6-1.6,6.3c-0.6,1.6-1.3,2-2.7,2.2l-1.4,0.2l-0.2,1.5
	h10.8l0.2-1.5l-1.8-0.2c-1.5-0.2-2.2-0.6-2.1-2.2c0.1-1.7,0.4-3.6,1-6.3l4.3-20.9h0.1c4.3,10.3,8.5,20.7,12.7,31h3l5.1-25.1
	c0.5-2.7,1.1-4.6,1.6-6.3c0.6-1.6,1.3-2,2.7-2.2l1.4-0.2l0.2-1.5h-10.8l-0.2,1.5l1.8,0.2c1.5,0.2,2.2,0.5,2.1,2.1
	c-0.1,1.7-0.4,3.6-1,6.3l-3.8,18.4h-0.2c-3.9-9.5-7.9-19-11.7-28.6H197.2z M259,232.3c-2.8-1.7-6.4-2.5-10.3-2.5
	c-7,0-12.1,2.8-15.3,7.3c-3,4.3-4.4,9.7-4.4,14.2c0,5.1,1.5,9.2,3.9,11.5c2.7,2.6,6.4,3.8,10.7,3.8c3.3,0,7.1-0.9,9.7-1.9l2.1-10.3
	c0.4-1.7,0.6-2.5,1.4-2.6l2-0.2l0.3-1.5h-12.1l-0.3,1.5l3.4,0.4c0.9,0.1,1.2,0.7,0.8,2.4l-1.7,7.7c-0.3,1.5-0.9,2.8-5.7,2.8
	c-5.5,0-9.6-4.1-9.6-13.1c0-8.1,3.6-20.1,14.6-20.1c6.7,0,7.6,4.3,7.3,8.7h1.4L259,232.3z M282.7,265.8l2.3-9h-1.4
	c-2.3,6.3-4.4,7.2-9.6,7.2c-2.2,0-4.5-0.2-5.1-0.7c-0.7-0.6-0.7-1.4-0.2-3.8l5.1-24.8c0.4-1.7,0.8-2.4,2-2.5l2.7-0.2l0.3-1.5h-12.8
	l-0.3,1.5l2.7,0.3c1.1,0.1,1.4,0.8,1,2.5l-5.5,26.8c-0.4,1.8-0.8,2.3-1.9,2.4l-2.5,0.3l-0.3,1.5H282.7z M307.2,235.3L307.2,235.3
	c-2.6,4.9-5.1,9.9-7.5,15h9.1L307.2,235.3z M306.2,265.8l0.3-1.5l2.4-0.3c0.9-0.1,1.3-0.5,1.1-2l-1-9.9h-10.3
	c-1.7,3.4-3.2,6.7-4.7,10c-0.4,1.1-0.3,1.8,0.6,1.9l2.5,0.3l-0.3,1.5h-10.3l0.3-1.5l1.5-0.2c1.4-0.2,2.2-0.7,3.7-3.4
	c1.7-3.1,5.5-10.6,7.8-15.2l7.7-15h3.2l3.4,30.7c0.2,2.1,0.4,2.8,1.8,3l1.7,0.2l-0.3,1.5H306.2z M326.5,230.5l-0.3,1.5l2.7,0.3
	c1.1,0.1,1.4,0.8,1,2.4l-4.3,20.9c-0.6,2.7-1.1,4.6-1.6,6.3c-0.5,1.6-1.3,2-2.7,2.2l-1.4,0.2l-0.2,1.5h10.8l0.2-1.5l-1.8-0.2
	c-1.5-0.2-2.2-0.6-2.1-2.2c0.1-1.7,0.4-3.6,1-6.3l4.3-20.9h0.1c4.3,10.3,8.5,20.7,12.7,31h3l5.1-25.1c0.5-2.7,1.1-4.6,1.6-6.3
	c0.5-1.6,1.3-2,2.7-2.2l1.4-0.2l0.2-1.5h-10.8l-0.2,1.5l1.8,0.2c1.5,0.2,2.2,0.5,2.1,2.1c-0.1,1.7-0.4,3.6-1,6.3l-3.8,18.4h-0.2
	c-3.9-9.5-7.9-19-11.7-28.6H326.5z M355.9,264.3l2.6-0.3c1.1-0.1,1.6-0.8,1.9-2.4l5.5-26.8c0.3-1.7,0.1-2.4-1-2.5l-2.7-0.3l0.3-1.5
	h12.3c5.1,0,9.2,1.2,11.9,3.7c2.6,2.4,3.9,6.5,3.9,10.6c0,3.1-0.5,7.3-3.1,11.7c-3.3,5.6-8.6,9.2-17.8,9.2h-14.1L355.9,264.3z
	 M375.3,232.3c-4,0-4.6,0.2-5,1.9l-5.6,27.2c-0.5,2.2,1.2,2.6,3.8,2.6c7.6,0,11.6-3.2,14.2-7.9c2.1-3.8,3-7.9,3-12.3
	C385.6,239.6,384.8,232.5,375.3,232.3 M-44.7,393.8h43.1c34.3,0,41.1-19.7,41.1-33c0-16.7-11.1-24-21.4-26.3l0.1-0.5
	C37,331.6,45,319.8,45,307.7c0-8.3-3-14.8-8.9-18.8c-6.2-4.3-15.4-5.4-25.6-5.2h-34.1l-0.9,4.6l8.4,1c3.3,0.3,4.1,2.2,3,7.6
	L-30,380.6c-1,5.3-2.6,7.2-5.9,7.6l-7.9,0.9L-44.7,393.8z M-2.2,337.3c14,0,26.4,4.5,26.4,22.6c0,14.2-7.7,28.3-26.6,28.3
	c-14,0-14.6-4-13.3-10.2l8.1-40.8H-2.2z M-6.7,331.7l7.5-36.9c1-4.8,1.7-5.6,11.2-5.6c11.9,0,18.6,6.7,18.6,17.8
	c0,8.1-3.4,14.3-8.4,18.8c-4.7,4-12,5.9-19.7,5.9H-6.7z M71.9,280c-6.1,0-9.2,5.4-9.2,10.5c0,5.9,3.5,8.9,7.8,8.9
	c5.5,0,9.1-4.3,9.1-10.7C79.5,282.5,75.9,280,71.9,280 M46.8,318.4l-0.8,3.8L54,323c3.8,0.3,4.2,1.8,3,7.3l-11.9,49.8
	c-2.1,9.1-0.3,15.6,7.4,15.6c10.2,0,18.1-10.8,23-22.9l-3.4-2.2c-2.6,5.6-8.8,16.9-12.7,16.9c-2.8,0-2.7-3.7-1.4-8.8l15.4-64
	l-0.7-0.8L46.8,318.4z M117.9,313.9c-33.6,0-41.7,39.3-41.7,53c0,17,8.2,28.8,26.1,28.8c15.4,0,25.4-8.6,32-20.4
	c6.5-11.5,8.9-25,8.9-33.6C143.3,319.8,129.4,313.9,117.9,313.9 M117.8,319.5c8.6,0,11.8,6.9,11.8,16.7c0,11.3-7.4,54-26.8,54
	c-8.2,0-12.8-5.6-12.8-16.9C90,356.1,99.1,319.5,117.8,319.5 M137.5,393.8l0.9-4.6l7.8-0.9c3.4-0.3,4.8-2.1,6-7.6l17-83.7
	c1.1-5.3,0.1-7.5-3.1-7.8l-8.4-0.8l1-4.6h39.5l-1,4.6l-8.5,0.6c-3.5,0.3-5,2.7-6.1,8l-15.7,77.5c-1.6,7.5-1.4,9.9,0.7,11.8
	c1.8,1.6,8.9,2.1,15.9,2.1c16,0,22.4-2.9,29.6-22.5h4.3l-7.2,28H137.5z M277.8,315.2l-0.7,2.1c-2.4-1.9-6.5-3.3-10.3-3.3
	c-33.7,0-49.9,41.9-49.9,62.9c0,9.6,4,18.9,13.6,18.9c15.2,0,28.3-19.7,36.6-36h0.3l-4.8,18.2c-3,11.3-1.4,17.8,6.2,17.8
	c10.8,0,18.7-10.8,23.5-22.9l-3.4-2.2c-2.6,5.6-8.8,16.9-12.7,16.9c-2.8,0-2.7-3.7-1.4-8.8l15-63.5H277.8z M275.7,323
	c-2.6,11.8-7.7,27.5-15.2,40.3c-7.9,13.5-16.6,24.2-23.4,24.2c-4.7,0-6.2-4.9-6.2-11.1c0-17.5,13.9-56.8,36.1-56.8
	C270.4,319.5,273.5,320.7,275.7,323 M326.8,276.5l-0.7-0.8l-25.4,3.8l-0.8,3.7l8.1,1.1c3.5,0.5,4.1,1.6,2.8,7.8l-20.8,101.7h5.1
	l4.4-9.2c2.5,6.7,9.8,11.1,17.9,11.1c16.6,0,28.6-12.4,35.6-26.4c7.1-14,9.3-28.2,9.3-35.4c0-11.8-4.7-20.1-15.2-20.1
	c-10.8,0-24.8,11-35.7,32.8h-0.3L326.8,276.5z M348.3,335.4c0,11.5-8.5,54.8-29.3,54.8c-7.2,0-11.6-5.7-11.6-13.7
	c0-7.6,3-18.6,7.5-27.9c6.4-12.7,17-26.4,25.8-26.4C345.9,322.2,348.3,326.3,348.3,335.4 M392.1,313.9c12.6,0,18,7.5,18,12.4
	c0,4.9-4,7.3-6.8,7.3c-2.1,0-3.3-1.3-4-3.2c-3-7.5-6.7-11-11.3-11c-5.2,0-8.8,5.3-8.8,10.4c0,4.5,1.6,9.7,10.1,17.5
	c9.5,8.8,13,15.6,13,24.4c0,13.1-9.2,24-24.5,24c-13.5,0-21.3-8.3-21.3-15.1c0-4.3,3.1-8.6,7.4-8.6c2.4,0,3.7,1.8,4.5,4.8
	c2.3,8.4,7.5,13.4,12.7,13.4c6,0,10.2-4.5,10.2-11.9c0-6.2-3.7-13.2-9.8-18.6c-7.4-6.7-12.5-14-12.5-22.3
	C369.1,324.4,377.6,313.9,392.1,313.9 M423,320.2c3.9,0,6.9,3.2,6.9,7.3s-3,7.3-6.9,7.3c-3.9,0-6.9-3.2-6.9-7.3
	S419.2,320.2,423,320.2 M423,335.8c4.6,0,8.4-3.7,8.4-8.3c0-4.6-3.7-8.3-8.4-8.3c-4.6,0-8.4,3.7-8.4,8.3
	C414.7,332.1,418.4,335.8,423,335.8 M421.9,324.1c0-0.3,0.1-0.5,1-0.5c0.9,0,1.8,0.3,1.8,1.7c0,1.3-0.8,1.8-2,1.8h-0.9V324.1z
	 M423.1,331.8v-0.5l-0.7-0.1c-0.4,0-0.5-0.3-0.5-0.6v-2.8h0.8c0.7,0,1.2,0.2,1.4,0.7c0.2,0.4,0.3,1.4,0.6,2.3c0.2,0.6,0.7,1,1.7,1h1
	v-0.3c-0.3-0.1-0.6-0.2-0.8-0.4c-0.3-0.4-0.5-0.8-0.6-1.4c-0.2-1-0.4-1.9-1.8-2.2v-0.1c1.3-0.2,2.2-0.9,2.2-2.2c0-1.2-0.8-2.2-3-2.2
	h-4.1v0.5l0.7,0.1c0.4,0.1,0.5,0.3,0.5,0.7v6.3c0,0.4-0.1,0.6-0.5,0.6l-0.7,0.1v0.5H423.1z M411.7,392.9l0.2-1.3l2.1-0.3
	c0.9-0.1,1.4-0.7,1.6-2.1l4.7-22.7c0.3-1.3,0-2.1-0.9-2.2l-2.3-0.2l0.3-1.3h10.6l-0.3,1.3l-2.1,0.2c-1,0.1-1.4,0.8-1.6,2.1
	l-4.7,22.7c-0.3,1.3-0.1,2.1,0.9,2.2l2.3,0.2l-0.2,1.3H411.7z M426.9,393.4l4.1-17.6c0.4-1.4,0.4-2-0.6-2.1l-2.4-0.2l0.2-1l7.1-1.2
	l0.2,0.2l-2.5,9.4h0.1c2.3-5.1,6.4-9.6,10.1-9.6c3.2,0,3.7,2.9,2.8,6.3l-3,11.3c-0.4,1.4-0.4,2.4,0.4,2.4c1.1,0,2.8-3.1,3.5-4.6
	l0.9,0.6c-1.3,3.3-3.5,6.2-6.4,6.2c-2.1,0-2.6-1.8-2-4.2l3.3-12.6c0.4-1.7,0.1-3.1-1.3-3.1c-3.1,0-6.9,6.3-8.3,10
	c-1,2.7-1.7,5-2.8,9.4L426.9,393.4z M465.2,387.1c-2.7,5-6,6.3-8.9,6.3c-2.7,0-5.6-1.6-5.6-6.9c0-7.1,4.4-15.3,11.3-15.3
	c2.9,0,5,1.6,5,3.8c0,1.4-1.5,2.4-2.5,2.4c-0.7,0-1-0.5-1.1-1.3c-0.2-2.6-1.1-3.5-2.3-3.5c-3.6,0-6.5,7.3-6.5,12.9
	c0,3.1,0.6,5.7,3.4,5.7c2.6,0,4.9-3.1,6.2-5.1L465.2,387.1z M471.9,393.4c-1.4,0-2.2-1.1-2.2-2.5c0-1.8,1.1-2.9,2.5-2.9
	c1.4,0,2.2,1.1,2.2,2.4C474.4,392.3,473.4,393.4,471.9,393.4"/>
</svg>
